<?xml version="1.0" encoding="us-ascii" standalone="no"?><svg xmlns="http://www.w3.org/2000/svg" xmlns:xlink="http://www.w3.org/1999/xlink" contentStyleType="text/css" height="1517px" preserveAspectRatio="none" style="width:484px;height:1517px;background:#FFFFFF;" version="1.1" viewBox="0 0 484 1517" width="484px" zoomAndPan="magnify"><defs/><g><text fill="#000000" font-family="sans-serif" font-size="14" font-weight="bold" lengthAdjust="spacing" textLength="151" x="162.75" y="27.9951">OTA Message Flow</text><rect fill="#ADD8E6" height="1467.9063" style="stroke:#181818;stroke-width:0.5;" width="146.5" x="146" y="43.2969"/><text fill="#000000" font-family="sans-serif" font-size="13" font-weight="bold" lengthAdjust="spacing" textLength="31" x="203.75" y="55.3638">GO7</text><rect fill="#FFDDDD" height="1467.9063" style="stroke:#181818;stroke-width:0.5;" width="52" x="424.5" y="43.2969"/><text fill="#000000" font-family="sans-serif" font-size="13" font-weight="bold" lengthAdjust="spacing" textLength="29" x="436" y="55.3638">SAR</text><rect fill="#FFFFFF" height="87.3984" style="stroke:#181818;stroke-width:1.0;" width="10" x="165.5" y="243.125"/><rect fill="#FFFFFF" height="87.3984" style="stroke:#181818;stroke-width:1.0;" width="10" x="261.5" y="481.0547"/><rect fill="#FFFFFF" height="87.3984" style="stroke:#181818;stroke-width:1.0;" width="10" x="261.5" y="754.1172"/><rect fill="#FFFFFF" height="87.3984" style="stroke:#181818;stroke-width:1.0;" width="10" x="261.5" y="913.7813"/><rect fill="#FFFFFF" height="87.3984" style="stroke:#181818;stroke-width:1.0;" width="10" x="261.5" y="1138.8438"/><rect fill="#FFFFFF" height="87.3984" style="stroke:#181818;stroke-width:1.0;" width="10" x="261.5" y="1326.5078"/><rect fill="#FFFFFF" height="29.1328" style="stroke:#181818;stroke-width:1.0;" width="10" x="445.5" y="272.2578"/><rect fill="#FFFFFF" height="29.1328" style="stroke:#181818;stroke-width:1.0;" width="10" x="445.5" y="510.1875"/><rect fill="#FFFFFF" height="29.1328" style="stroke:#181818;stroke-width:1.0;" width="10" x="445.5" y="783.25"/><rect fill="#FFFFFF" height="29.1328" style="stroke:#181818;stroke-width:1.0;" width="10" x="445.5" y="942.9141"/><rect fill="#FFFFFF" height="29.1328" style="stroke:#181818;stroke-width:1.0;" width="10" x="445.5" y="1167.9766"/><rect fill="#FFFFFF" height="29.1328" style="stroke:#181818;stroke-width:1.0;" width="10" x="445.5" y="1355.6406"/><line style="stroke:#181818;stroke-width:0.5;stroke-dasharray:5.0,5.0;" x1="58" x2="58" y1="118.5938" y2="338.5234"/><line style="stroke:#A80036;stroke-width:1.0;stroke-dasharray:1.0,4.0;" x1="58" x2="58" y1="338.5234" y2="366.5234"/><line style="stroke:#181818;stroke-width:0.5;stroke-dasharray:5.0,5.0;" x1="58" x2="58" y1="366.5234" y2="611.5859"/><line style="stroke:#A80036;stroke-width:1.0;stroke-dasharray:1.0,4.0;" x1="58" x2="58" y1="611.5859" y2="639.5859"/><line style="stroke:#181818;stroke-width:0.5;stroke-dasharray:5.0,5.0;" x1="58" x2="58" y1="639.5859" y2="1234.2422"/><line style="stroke:#A80036;stroke-width:1.0;stroke-dasharray:1.0,4.0;" x1="58" x2="58" y1="1234.2422" y2="1262.2422"/><line style="stroke:#181818;stroke-width:0.5;stroke-dasharray:5.0,5.0;" x1="58" x2="58" y1="1262.2422" y2="1431.9063"/><line style="stroke:#181818;stroke-width:0.5;stroke-dasharray:5.0,5.0;" x1="170" x2="170" y1="118.5938" y2="338.5234"/><line style="stroke:#A80036;stroke-width:1.0;stroke-dasharray:1.0,4.0;" x1="170" x2="170" y1="338.5234" y2="366.5234"/><line style="stroke:#181818;stroke-width:0.5;stroke-dasharray:5.0,5.0;" x1="170" x2="170" y1="366.5234" y2="611.5859"/><line style="stroke:#A80036;stroke-width:1.0;stroke-dasharray:1.0,4.0;" x1="170" x2="170" y1="611.5859" y2="639.5859"/><line style="stroke:#181818;stroke-width:0.5;stroke-dasharray:5.0,5.0;" x1="170" x2="170" y1="639.5859" y2="1234.2422"/><line style="stroke:#A80036;stroke-width:1.0;stroke-dasharray:1.0,4.0;" x1="170" x2="170" y1="1234.2422" y2="1262.2422"/><line style="stroke:#181818;stroke-width:0.5;stroke-dasharray:5.0,5.0;" x1="170" x2="170" y1="1262.2422" y2="1431.9063"/><line style="stroke:#181818;stroke-width:0.5;stroke-dasharray:5.0,5.0;" x1="266.5" x2="266.5" y1="118.5938" y2="338.5234"/><line style="stroke:#A80036;stroke-width:1.0;stroke-dasharray:1.0,4.0;" x1="266.5" x2="266.5" y1="338.5234" y2="366.5234"/><line style="stroke:#181818;stroke-width:0.5;stroke-dasharray:5.0,5.0;" x1="266.5" x2="266.5" y1="366.5234" y2="611.5859"/><line style="stroke:#A80036;stroke-width:1.0;stroke-dasharray:1.0,4.0;" x1="266.5" x2="266.5" y1="611.5859" y2="639.5859"/><line style="stroke:#181818;stroke-width:0.5;stroke-dasharray:5.0,5.0;" x1="266.5" x2="266.5" y1="639.5859" y2="1234.2422"/><line style="stroke:#A80036;stroke-width:1.0;stroke-dasharray:1.0,4.0;" x1="266.5" x2="266.5" y1="1234.2422" y2="1262.2422"/><line style="stroke:#181818;stroke-width:0.5;stroke-dasharray:5.0,5.0;" x1="266.5" x2="266.5" y1="1262.2422" y2="1431.9063"/><line style="stroke:#181818;stroke-width:0.5;stroke-dasharray:5.0,5.0;" x1="450.5" x2="450.5" y1="118.5938" y2="338.5234"/><line style="stroke:#A80036;stroke-width:1.0;stroke-dasharray:1.0,4.0;" x1="450.5" x2="450.5" y1="338.5234" y2="366.5234"/><line style="stroke:#181818;stroke-width:0.5;stroke-dasharray:5.0,5.0;" x1="450.5" x2="450.5" y1="366.5234" y2="611.5859"/><line style="stroke:#A80036;stroke-width:1.0;stroke-dasharray:1.0,4.0;" x1="450.5" x2="450.5" y1="611.5859" y2="639.5859"/><line style="stroke:#181818;stroke-width:0.5;stroke-dasharray:5.0,5.0;" x1="450.5" x2="450.5" y1="639.5859" y2="1234.2422"/><line style="stroke:#A80036;stroke-width:1.0;stroke-dasharray:1.0,4.0;" x1="450.5" x2="450.5" y1="1234.2422" y2="1262.2422"/><line style="stroke:#181818;stroke-width:0.5;stroke-dasharray:5.0,5.0;" x1="450.5" x2="450.5" y1="1262.2422" y2="1431.9063"/><text fill="#000000" font-family="sans-serif" font-size="14" lengthAdjust="spacing" textLength="101" x="5" y="115.292">End Customer</text><ellipse cx="58.5" cy="50.7969" fill="#E2E2F0" rx="8" ry="8" style="stroke:#181818;stroke-width:0.5;"/><path d="M58.5,58.7969 L58.5,85.7969 M45.5,66.7969 L71.5,66.7969 M58.5,85.7969 L45.5,100.7969 M58.5,85.7969 L71.5,100.7969 " fill="none" style="stroke:#181818;stroke-width:0.5;"/><text fill="#000000" font-family="sans-serif" font-size="14" lengthAdjust="spacing" textLength="101" x="5" y="1443.9014">End Customer</text><ellipse cx="58.5" cy="1455.7031" fill="#E2E2F0" rx="8" ry="8" style="stroke:#181818;stroke-width:0.5;"/><path d="M58.5,1463.7031 L58.5,1490.7031 M45.5,1471.7031 L71.5,1471.7031 M58.5,1490.7031 L45.5,1505.7031 M58.5,1490.7031 L71.5,1505.7031 " fill="none" style="stroke:#181818;stroke-width:0.5;"/><rect fill="#E2E2F0" height="30.2969" rx="2.5" ry="2.5" style="stroke:#181818;stroke-width:0.5;" width="41" x="150" y="87.2969"/><text fill="#000000" font-family="sans-serif" font-size="14" lengthAdjust="spacing" textLength="27" x="157" y="107.292">PSS</text><rect fill="#E2E2F0" height="30.2969" rx="2.5" ry="2.5" style="stroke:#181818;stroke-width:0.5;" width="41" x="150" y="1430.9063"/><text fill="#000000" font-family="sans-serif" font-size="14" lengthAdjust="spacing" textLength="27" x="157" y="1450.9014">PSS</text><rect fill="#E2E2F0" height="30.2969" rx="2.5" ry="2.5" style="stroke:#181818;stroke-width:0.5;" width="44" x="244.5" y="87.2969"/><text fill="#000000" font-family="sans-serif" font-size="14" lengthAdjust="spacing" textLength="30" x="251.5" y="107.292">OTA</text><rect fill="#E2E2F0" height="30.2969" rx="2.5" ry="2.5" style="stroke:#181818;stroke-width:0.5;" width="44" x="244.5" y="1430.9063"/><text fill="#000000" font-family="sans-serif" font-size="14" lengthAdjust="spacing" textLength="30" x="251.5" y="1450.9014">OTA</text><rect fill="#E2E2F0" height="30.2969" rx="2.5" ry="2.5" style="stroke:#181818;stroke-width:0.5;" width="44" x="428.5" y="87.2969"/><text fill="#000000" font-family="sans-serif" font-size="14" lengthAdjust="spacing" textLength="30" x="435.5" y="107.292">HHR</text><rect fill="#E2E2F0" height="30.2969" rx="2.5" ry="2.5" style="stroke:#181818;stroke-width:0.5;" width="44" x="428.5" y="1430.9063"/><text fill="#000000" font-family="sans-serif" font-size="14" lengthAdjust="spacing" textLength="30" x="435.5" y="1450.9014">HHR</text><rect fill="#FFFFFF" height="87.3984" style="stroke:#181818;stroke-width:1.0;" width="10" x="165.5" y="243.125"/><rect fill="#FFFFFF" height="87.3984" style="stroke:#181818;stroke-width:1.0;" width="10" x="261.5" y="481.0547"/><rect fill="#FFFFFF" height="87.3984" style="stroke:#181818;stroke-width:1.0;" width="10" x="261.5" y="754.1172"/><rect fill="#FFFFFF" height="87.3984" style="stroke:#181818;stroke-width:1.0;" width="10" x="261.5" y="913.7813"/><rect fill="#FFFFFF" height="87.3984" style="stroke:#181818;stroke-width:1.0;" width="10" x="261.5" y="1138.8438"/><rect fill="#FFFFFF" height="87.3984" style="stroke:#181818;stroke-width:1.0;" width="10" x="261.5" y="1326.5078"/><rect fill="#FFFFFF" height="29.1328" style="stroke:#181818;stroke-width:1.0;" width="10" x="445.5" y="272.2578"/><rect fill="#FFFFFF" height="29.1328" style="stroke:#181818;stroke-width:1.0;" width="10" x="445.5" y="510.1875"/><rect fill="#FFFFFF" height="29.1328" style="stroke:#181818;stroke-width:1.0;" width="10" x="445.5" y="783.25"/><rect fill="#FFFFFF" height="29.1328" style="stroke:#181818;stroke-width:1.0;" width="10" x="445.5" y="942.9141"/><rect fill="#FFFFFF" height="29.1328" style="stroke:#181818;stroke-width:1.0;" width="10" x="445.5" y="1167.9766"/><rect fill="#FFFFFF" height="29.1328" style="stroke:#181818;stroke-width:1.0;" width="10" x="445.5" y="1355.6406"/><rect fill="#EEEEEE" height="3" style="stroke:#EEEEEE;stroke-width:1.0;" width="477.5" x="0" y="149.1602"/><line style="stroke:#000000;stroke-width:1.0;" x1="0" x2="477.5" y1="149.1602" y2="149.1602"/><line style="stroke:#000000;stroke-width:1.0;" x1="0" x2="477.5" y1="152.1602" y2="152.1602"/><rect fill="#EEEEEE" height="23.1328" style="stroke:#000000;stroke-width:2.0;" width="186" x="145.75" y="138.5938"/><text fill="#000000" font-family="sans-serif" font-size="13" font-weight="bold" lengthAdjust="spacing" textLength="167" x="151.75" y="154.6606">Use Case : Get routes</text><path d="M171,176.7266 L171,216.7266 L362,216.7266 L362,186.7266 L352,176.7266 L171,176.7266 " fill="#FEFFDD" style="stroke:#181818;stroke-width:0.5;"/><path d="M352,176.7266 L352,186.7266 L362,186.7266 L352,176.7266 " fill="#FEFFDD" style="stroke:#181818;stroke-width:0.5;"/><text fill="#000000" font-family="sans-serif" font-size="13" lengthAdjust="spacing" textLength="153" x="177" y="193.7935">Show the route options.</text><text fill="#000000" font-family="sans-serif" font-size="13" lengthAdjust="spacing" textLength="170" x="177" y="208.9263">Departure &amp; Arrival airport</text><polygon fill="#181818" points="153.5,239.125,163.5,243.125,153.5,247.125,157.5,243.125" style="stroke:#181818;stroke-width:1.0;"/><line style="stroke:#181818;stroke-width:1.0;" x1="58.5" x2="159.5" y1="243.125" y2="243.125"/><text fill="#000000" font-family="sans-serif" font-size="13" font-weight="bold" lengthAdjust="spacing" textLength="9" x="65.5" y="238.0591">1</text><text fill="#000000" font-family="sans-serif" font-size="13" lengthAdjust="spacing" textLength="75" x="78.5" y="238.0591">GET /routes</text><polygon fill="#181818" points="433.5,268.2578,443.5,272.2578,433.5,276.2578,437.5,272.2578" style="stroke:#181818;stroke-width:1.0;"/><line style="stroke:#181818;stroke-width:1.0;" x1="175.5" x2="439.5" y1="272.2578" y2="272.2578"/><text fill="#000000" font-family="sans-serif" font-size="13" font-weight="bold" lengthAdjust="spacing" textLength="9" x="182.5" y="267.1919">2</text><text fill="#000000" font-family="sans-serif" font-size="13" lengthAdjust="spacing" textLength="75" x="195.5" y="267.1919">GET /routes</text><polygon fill="#181818" points="186.5,297.3906,176.5,301.3906,186.5,305.3906,182.5,301.3906" style="stroke:#181818;stroke-width:1.0;"/><line style="stroke:#181818;stroke-width:1.0;stroke-dasharray:2.0,2.0;" x1="180.5" x2="449.5" y1="301.3906" y2="301.3906"/><text fill="#000000" font-family="sans-serif" font-size="13" font-weight="bold" lengthAdjust="spacing" textLength="8" x="192.5" y="296.3247">3</text><text fill="#000000" font-family="sans-serif" font-size="13" lengthAdjust="spacing" textLength="102" x="204.5" y="296.3247">available routes</text><polygon fill="#181818" points="69.5,326.5234,59.5,330.5234,69.5,334.5234,65.5,330.5234" style="stroke:#181818;stroke-width:1.0;"/><line style="stroke:#181818;stroke-width:1.0;stroke-dasharray:2.0,2.0;" x1="63.5" x2="169.5" y1="330.5234" y2="330.5234"/><text fill="#000000" font-family="sans-serif" font-size="13" font-weight="bold" lengthAdjust="spacing" textLength="9" x="75.5" y="325.4575">4</text><text fill="#000000" font-family="sans-serif" font-size="13" lengthAdjust="spacing" textLength="41" x="88.5" y="325.4575">routes</text><rect fill="#EEEEEE" height="3" style="stroke:#EEEEEE;stroke-width:1.0;" width="477.5" x="0" y="387.0898"/><line style="stroke:#000000;stroke-width:1.0;" x1="0" x2="477.5" y1="387.0898" y2="387.0898"/><line style="stroke:#000000;stroke-width:1.0;" x1="0" x2="477.5" y1="390.0898" y2="390.0898"/><rect fill="#EEEEEE" height="23.1328" style="stroke:#000000;stroke-width:2.0;" width="278" x="99.75" y="376.5234"/><text fill="#000000" font-family="sans-serif" font-size="13" font-weight="bold" lengthAdjust="spacing" textLength="259" x="105.75" y="392.5903">Use case : Search train availability</text><path d="M63,414.6563 L63,454.6563 L261,454.6563 L261,424.6563 L251,414.6563 L63,414.6563 " fill="#FEFFDD" style="stroke:#181818;stroke-width:0.5;"/><path d="M251,414.6563 L251,424.6563 L261,424.6563 L251,414.6563 " fill="#FEFFDD" style="stroke:#181818;stroke-width:0.5;"/><text fill="#000000" font-family="sans-serif" font-size="13" lengthAdjust="spacing" textLength="119" x="69" y="431.7231">(origin, destination</text><text fill="#000000" font-family="sans-serif" font-size="13" lengthAdjust="spacing" textLength="177" x="69" y="446.856">, number of pax , pax type)</text><polygon fill="#181818" points="249.5,477.0547,259.5,481.0547,249.5,485.0547,253.5,481.0547" style="stroke:#181818;stroke-width:1.0;"/><line style="stroke:#181818;stroke-width:1.0;" x1="58.5" x2="255.5" y1="481.0547" y2="481.0547"/><text fill="#000000" font-family="sans-serif" font-size="13" font-weight="bold" lengthAdjust="spacing" textLength="9" x="65.5" y="475.9888">1</text><text fill="#000000" font-family="sans-serif" font-size="13" lengthAdjust="spacing" textLength="168" x="78.5" y="475.9888">OTA_AirLowFareSearchRQ</text><polygon fill="#181818" points="433.5,506.1875,443.5,510.1875,433.5,514.1875,437.5,510.1875" style="stroke:#181818;stroke-width:1.0;"/><line style="stroke:#181818;stroke-width:1.0;" x1="271.5" x2="439.5" y1="510.1875" y2="510.1875"/><text fill="#000000" font-family="sans-serif" font-size="13" font-weight="bold" lengthAdjust="spacing" textLength="9" x="278.5" y="505.1216">2</text><text fill="#000000" font-family="sans-serif" font-size="13" lengthAdjust="spacing" textLength="98" x="291.5" y="505.1216">GET availability</text><polygon fill="#181818" points="282.5,535.3203,272.5,539.3203,282.5,543.3203,278.5,539.3203" style="stroke:#181818;stroke-width:1.0;"/><line style="stroke:#181818;stroke-width:1.0;stroke-dasharray:2.0,2.0;" x1="276.5" x2="449.5" y1="539.3203" y2="539.3203"/><text fill="#000000" font-family="sans-serif" font-size="13" font-weight="bold" lengthAdjust="spacing" textLength="8" x="288.5" y="534.2544">3</text><text fill="#000000" font-family="sans-serif" font-size="13" lengthAdjust="spacing" textLength="94" x="300.5" y="534.2544">available fares</text><polygon fill="#181818" points="69.5,564.4531,59.5,568.4531,69.5,572.4531,65.5,568.4531" style="stroke:#181818;stroke-width:1.0;"/><line style="stroke:#181818;stroke-width:1.0;stroke-dasharray:2.0,2.0;" x1="63.5" x2="265.5" y1="568.4531" y2="568.4531"/><text fill="#000000" font-family="sans-serif" font-size="13" font-weight="bold" lengthAdjust="spacing" textLength="9" x="75.5" y="563.3872">4</text><text fill="#000000" font-family="sans-serif" font-size="13" lengthAdjust="spacing" textLength="166" x="88.5" y="563.3872">OTA_AirLowFareSearchRS</text><path d="M63,581.4531 L63,606.4531 L275,606.4531 L275,591.4531 L265,581.4531 L63,581.4531 " fill="#FEFFDD" style="stroke:#181818;stroke-width:0.5;"/><path d="M265,581.4531 L265,591.4531 L275,591.4531 L265,581.4531 " fill="#FEFFDD" style="stroke:#181818;stroke-width:0.5;"/><text fill="#000000" font-family="sans-serif" font-size="13" lengthAdjust="spacing" textLength="191" x="69" y="598.52">Train list with the lowest price</text><rect fill="#EEEEEE" height="3" style="stroke:#EEEEEE;stroke-width:1.0;" width="477.5" x="0" y="660.1523"/><line style="stroke:#000000;stroke-width:1.0;" x1="0" x2="477.5" y1="660.1523" y2="660.1523"/><line style="stroke:#000000;stroke-width:1.0;" x1="0" x2="477.5" y1="663.1523" y2="663.1523"/><rect fill="#EEEEEE" height="23.1328" style="stroke:#000000;stroke-width:2.0;" width="278" x="99.75" y="649.5859"/><text fill="#000000" font-family="sans-serif" font-size="13" font-weight="bold" lengthAdjust="spacing" textLength="259" x="105.75" y="665.6528">Use case : Make a regular booking</text><path d="M63,687.7188 L63,727.7188 L214,727.7188 L214,697.7188 L204,687.7188 L63,687.7188 " fill="#FEFFDD" style="stroke:#181818;stroke-width:0.5;"/><path d="M204,687.7188 L204,697.7188 L214,697.7188 L204,687.7188 " fill="#FEFFDD" style="stroke:#181818;stroke-width:0.5;"/><text fill="#000000" font-family="sans-serif" font-size="13" lengthAdjust="spacing" textLength="106" x="69" y="704.7856">Pax name, addr,</text><text fill="#000000" font-family="sans-serif" font-size="13" lengthAdjust="spacing" textLength="130" x="69" y="719.9185">phone no., CTC, etc.</text><polygon fill="#181818" points="249.5,750.1172,259.5,754.1172,249.5,758.1172,253.5,754.1172" style="stroke:#181818;stroke-width:1.0;"/><line style="stroke:#181818;stroke-width:1.0;" x1="58.5" x2="255.5" y1="754.1172" y2="754.1172"/><text fill="#000000" font-family="sans-serif" font-size="13" font-weight="bold" lengthAdjust="spacing" textLength="9" x="65.5" y="749.0513">1</text><text fill="#000000" font-family="sans-serif" font-size="13" lengthAdjust="spacing" textLength="101" x="78.5" y="749.0513">OTA_AirBookRQ</text><polygon fill="#181818" points="433.5,779.25,443.5,783.25,433.5,787.25,437.5,783.25" style="stroke:#181818;stroke-width:1.0;"/><line style="stroke:#181818;stroke-width:1.0;" x1="271.5" x2="439.5" y1="783.25" y2="783.25"/><text fill="#000000" font-family="sans-serif" font-size="13" font-weight="bold" lengthAdjust="spacing" textLength="9" x="278.5" y="778.1841">2</text><text fill="#000000" font-family="sans-serif" font-size="13" lengthAdjust="spacing" textLength="142" x="291.5" y="778.1841">POST create purchase</text><polygon fill="#181818" points="282.5,808.3828,272.5,812.3828,282.5,816.3828,278.5,812.3828" style="stroke:#181818;stroke-width:1.0;"/><line style="stroke:#181818;stroke-width:1.0;stroke-dasharray:2.0,2.0;" x1="276.5" x2="449.5" y1="812.3828" y2="812.3828"/><text fill="#000000" font-family="sans-serif" font-size="13" font-weight="bold" lengthAdjust="spacing" textLength="8" x="288.5" y="807.3169">3</text><text fill="#000000" font-family="sans-serif" font-size="13" lengthAdjust="spacing" textLength="4" x="300.5" y="807.3169">&#160;</text><polygon fill="#181818" points="69.5,837.5156,59.5,841.5156,69.5,845.5156,65.5,841.5156" style="stroke:#181818;stroke-width:1.0;"/><line style="stroke:#181818;stroke-width:1.0;stroke-dasharray:2.0,2.0;" x1="63.5" x2="265.5" y1="841.5156" y2="841.5156"/><text fill="#000000" font-family="sans-serif" font-size="13" font-weight="bold" lengthAdjust="spacing" textLength="9" x="75.5" y="836.4497">4</text><text fill="#000000" font-family="sans-serif" font-size="13" lengthAdjust="spacing" textLength="99" x="88.5" y="836.4497">OTA_AirBookRS</text><rect fill="#EEEEEE" height="3" style="stroke:#EEEEEE;stroke-width:1.0;" width="477.5" x="0" y="870.082"/><line style="stroke:#000000;stroke-width:1.0;" x1="0" x2="477.5" y1="870.082" y2="870.082"/><line style="stroke:#000000;stroke-width:1.0;" x1="0" x2="477.5" y1="873.082" y2="873.082"/><rect fill="#EEEEEE" height="23.1328" style="stroke:#000000;stroke-width:2.0;" width="268" x="104.75" y="859.5156"/><text fill="#000000" font-family="sans-serif" font-size="13" font-weight="bold" lengthAdjust="spacing" textLength="249" x="110.75" y="875.5825">Use case : Make a group booking</text><polygon fill="#181818" points="249.5,909.7813,259.5,913.7813,249.5,917.7813,253.5,913.7813" style="stroke:#181818;stroke-width:1.0;"/><line style="stroke:#181818;stroke-width:1.0;" x1="58.5" x2="255.5" y1="913.7813" y2="913.7813"/><text fill="#000000" font-family="sans-serif" font-size="13" font-weight="bold" lengthAdjust="spacing" textLength="9" x="65.5" y="908.7153">1</text><text fill="#000000" font-family="sans-serif" font-size="13" lengthAdjust="spacing" textLength="101" x="78.5" y="908.7153">OTA_AirPriceRQ</text><polygon fill="#181818" points="433.5,938.9141,443.5,942.9141,433.5,946.9141,437.5,942.9141" style="stroke:#181818;stroke-width:1.0;"/><line style="stroke:#181818;stroke-width:1.0;" x1="271.5" x2="439.5" y1="942.9141" y2="942.9141"/><text fill="#000000" font-family="sans-serif" font-size="13" font-weight="bold" lengthAdjust="spacing" textLength="9" x="278.5" y="937.8481">2</text><text fill="#000000" font-family="sans-serif" font-size="13" lengthAdjust="spacing" textLength="142" x="291.5" y="937.8481">POST create purchase</text><polygon fill="#181818" points="282.5,968.0469,272.5,972.0469,282.5,976.0469,278.5,972.0469" style="stroke:#181818;stroke-width:1.0;"/><line style="stroke:#181818;stroke-width:1.0;stroke-dasharray:2.0,2.0;" x1="276.5" x2="449.5" y1="972.0469" y2="972.0469"/><text fill="#000000" font-family="sans-serif" font-size="13" font-weight="bold" lengthAdjust="spacing" textLength="8" x="288.5" y="966.981">3</text><text fill="#000000" font-family="sans-serif" font-size="13" lengthAdjust="spacing" textLength="4" x="300.5" y="966.981">&#160;</text><polygon fill="#181818" points="69.5,997.1797,59.5,1001.1797,69.5,1005.1797,65.5,1001.1797" style="stroke:#181818;stroke-width:1.0;"/><line style="stroke:#181818;stroke-width:1.0;stroke-dasharray:2.0,2.0;" x1="63.5" x2="265.5" y1="1001.1797" y2="1001.1797"/><text fill="#000000" font-family="sans-serif" font-size="13" font-weight="bold" lengthAdjust="spacing" textLength="9" x="75.5" y="996.1138">4</text><text fill="#000000" font-family="sans-serif" font-size="13" lengthAdjust="spacing" textLength="99" x="88.5" y="996.1138">OTA_AirPriceRS</text><rect fill="#EEEEEE" height="3" style="stroke:#EEEEEE;stroke-width:1.0;" width="477.5" x="0" y="1029.7461"/><line style="stroke:#000000;stroke-width:1.0;" x1="0" x2="477.5" y1="1029.7461" y2="1029.7461"/><line style="stroke:#000000;stroke-width:1.0;" x1="0" x2="477.5" y1="1032.7461" y2="1032.7461"/><rect fill="#EEEEEE" height="23.1328" style="stroke:#000000;stroke-width:2.0;" width="230" x="123.75" y="1019.1797"/><text fill="#000000" font-family="sans-serif" font-size="13" font-weight="bold" lengthAdjust="spacing" textLength="211" x="129.75" y="1035.2466">Use case : Modify a booking</text><path d="M63,1057.3125 L63,1112.3125 L289,1112.3125 L289,1067.3125 L279,1057.3125 L63,1057.3125 " fill="#FEFFDD" style="stroke:#181818;stroke-width:0.5;"/><path d="M279,1057.3125 L279,1067.3125 L289,1067.3125 L279,1057.3125 " fill="#FEFFDD" style="stroke:#181818;stroke-width:0.5;"/><text fill="#000000" font-family="sans-serif" font-size="13" lengthAdjust="spacing" textLength="123" x="69" y="1074.3794">Modification can be</text><text fill="#000000" font-family="sans-serif" font-size="13" lengthAdjust="spacing" textLength="97" x="69" y="1089.5122">- change name</text><text fill="#000000" font-family="sans-serif" font-size="13" lengthAdjust="spacing" textLength="205" x="69" y="1104.645">- change passenger information</text><polygon fill="#181818" points="249.5,1134.8438,259.5,1138.8438,249.5,1142.8438,253.5,1138.8438" style="stroke:#181818;stroke-width:1.0;"/><line style="stroke:#181818;stroke-width:1.0;" x1="58.5" x2="255.5" y1="1138.8438" y2="1138.8438"/><text fill="#000000" font-family="sans-serif" font-size="13" font-weight="bold" lengthAdjust="spacing" textLength="9" x="65.5" y="1133.7778">1</text><text fill="#000000" font-family="sans-serif" font-size="13" lengthAdjust="spacing" textLength="143" x="78.5" y="1133.7778">OTA_AirBookModifyRQ</text><polygon fill="#181818" points="433.5,1163.9766,443.5,1167.9766,433.5,1171.9766,437.5,1167.9766" style="stroke:#181818;stroke-width:1.0;"/><line style="stroke:#181818;stroke-width:1.0;" x1="271.5" x2="439.5" y1="1167.9766" y2="1167.9766"/><text fill="#000000" font-family="sans-serif" font-size="13" font-weight="bold" lengthAdjust="spacing" textLength="9" x="278.5" y="1162.9106">2</text><text fill="#000000" font-family="sans-serif" font-size="13" lengthAdjust="spacing" textLength="137" x="291.5" y="1162.9106">PUT update purchase</text><polygon fill="#181818" points="282.5,1193.1094,272.5,1197.1094,282.5,1201.1094,278.5,1197.1094" style="stroke:#181818;stroke-width:1.0;"/><line style="stroke:#181818;stroke-width:1.0;stroke-dasharray:2.0,2.0;" x1="276.5" x2="449.5" y1="1197.1094" y2="1197.1094"/><text fill="#000000" font-family="sans-serif" font-size="13" font-weight="bold" lengthAdjust="spacing" textLength="8" x="288.5" y="1192.0435">3</text><text fill="#000000" font-family="sans-serif" font-size="13" lengthAdjust="spacing" textLength="4" x="300.5" y="1192.0435">&#160;</text><polygon fill="#181818" points="69.5,1222.2422,59.5,1226.2422,69.5,1230.2422,65.5,1226.2422" style="stroke:#181818;stroke-width:1.0;"/><line style="stroke:#181818;stroke-width:1.0;stroke-dasharray:2.0,2.0;" x1="63.5" x2="265.5" y1="1226.2422" y2="1226.2422"/><text fill="#000000" font-family="sans-serif" font-size="13" font-weight="bold" lengthAdjust="spacing" textLength="9" x="75.5" y="1221.1763">4</text><text fill="#000000" font-family="sans-serif" font-size="13" lengthAdjust="spacing" textLength="141" x="88.5" y="1221.1763">OTA_AirBookModifyRS</text><rect fill="#EEEEEE" height="3" style="stroke:#EEEEEE;stroke-width:1.0;" width="477.5" x="0" y="1282.8086"/><line style="stroke:#000000;stroke-width:1.0;" x1="0" x2="477.5" y1="1282.8086" y2="1282.8086"/><line style="stroke:#000000;stroke-width:1.0;" x1="0" x2="477.5" y1="1285.8086" y2="1285.8086"/><rect fill="#EEEEEE" height="23.1328" style="stroke:#000000;stroke-width:2.0;" width="221" x="128.25" y="1272.2422"/><text fill="#000000" font-family="sans-serif" font-size="13" font-weight="bold" lengthAdjust="spacing" textLength="202" x="134.25" y="1288.3091">Use case : Issue the ticket</text><polygon fill="#181818" points="249.5,1322.5078,259.5,1326.5078,249.5,1330.5078,253.5,1326.5078" style="stroke:#181818;stroke-width:1.0;"/><line style="stroke:#181818;stroke-width:1.0;" x1="58.5" x2="255.5" y1="1326.5078" y2="1326.5078"/><text fill="#000000" font-family="sans-serif" font-size="13" font-weight="bold" lengthAdjust="spacing" textLength="9" x="65.5" y="1321.4419">1</text><text fill="#000000" font-family="sans-serif" font-size="13" lengthAdjust="spacing" textLength="163" x="78.5" y="1321.4419">OTA_AirDemandTicketRQ</text><polygon fill="#181818" points="433.5,1351.6406,443.5,1355.6406,433.5,1359.6406,437.5,1355.6406" style="stroke:#181818;stroke-width:1.0;"/><line style="stroke:#181818;stroke-width:1.0;" x1="271.5" x2="439.5" y1="1355.6406" y2="1355.6406"/><text fill="#000000" font-family="sans-serif" font-size="13" font-weight="bold" lengthAdjust="spacing" textLength="9" x="278.5" y="1350.5747">2</text><text fill="#000000" font-family="sans-serif" font-size="13" lengthAdjust="spacing" textLength="122" x="291.5" y="1350.5747">POST issue a ticket</text><polygon fill="#181818" points="282.5,1380.7734,272.5,1384.7734,282.5,1388.7734,278.5,1384.7734" style="stroke:#181818;stroke-width:1.0;"/><line style="stroke:#181818;stroke-width:1.0;stroke-dasharray:2.0,2.0;" x1="276.5" x2="449.5" y1="1384.7734" y2="1384.7734"/><text fill="#000000" font-family="sans-serif" font-size="13" font-weight="bold" lengthAdjust="spacing" textLength="8" x="288.5" y="1379.7075">3</text><text fill="#000000" font-family="sans-serif" font-size="13" lengthAdjust="spacing" textLength="95" x="300.5" y="1379.7075">ticket issuance</text><polygon fill="#181818" points="69.5,1409.9063,59.5,1413.9063,69.5,1417.9063,65.5,1413.9063" style="stroke:#181818;stroke-width:1.0;"/><line style="stroke:#181818;stroke-width:1.0;stroke-dasharray:2.0,2.0;" x1="63.5" x2="265.5" y1="1413.9063" y2="1413.9063"/><text fill="#000000" font-family="sans-serif" font-size="13" font-weight="bold" lengthAdjust="spacing" textLength="9" x="75.5" y="1408.8403">4</text><text fill="#000000" font-family="sans-serif" font-size="13" lengthAdjust="spacing" textLength="161" x="88.5" y="1408.8403">OTA_AirDemandTicketRS</text><!--SRC=[hLJRYjim47tNLmmfb9PrtCT280jfzbReadJjVIuJUnABs9AHv6Jpznt9tcHp9PJwmTWQpJbppepaf2i99ka8dibQN10yb7ej16PE6-ZTgnp6ZNMw8jC3j91rFqBCz1lq7YVVU_2fb8l2pSg61F1Jet4oapKg1xrfaeGyMzdZ8DE6e7OeY9aOiiDDHY-CEv_d_1pdFJszXBoYCBkyuH1UBS4O-JM0Ht9WTEF8md0ei75QDTMCwrRQ4UWLcS2Q57eDhg1sB-ZQIQriBEx84pQ6u3ECZ94hB06bgRLnWT6Z2F5k1lHllK2ukV7CzobyQwc5N-GOrycn_P1VwtTv_Vu0S8Mon5dPbTBbyeOT2U_gOd4SRmLdhU24q6G5E8DIlOF9KhhDAVt6DspNoo-Q5wIA82Vhf49lWeYWpG0zP_VV80fljwdfwnaBsD3M0kxhdv4ql_Jw0GsrbRty5Zw-TQDpwcEbMq_2nZrFvenZMu13IqwI9ITrfi6SKbe7Q-cAq7YUTXODjP4PxNITCFWPbmG8XXPDYOPdJY-bMbpXxfHjKrXH19Zd9X9reHKnJHp1E1r7G2wBBpgwrVY3EGzz7C1qagIG6KAchXjMp_KUM7dAETY7JSxeNV38rMVKNYXrwltyRxKUm1xNgdCvtt2rrtSbfCWip3h3A9YHw0CNfFWEzEtQ_TLeBV670QdcsbJj-RYwOsrn9xnuJQ6fyt-ruWCq- -47Tj-JdzOs54QSByubNuTNz-wEAbHv6hBEj506SEoWZmvkn-XteU9pTKd77blo5m00]--></g></svg>