<svg xmlns="http://www.w3.org/2000/svg" xmlns:xlink="http://www.w3.org/1999/xlink" contentStyleType="text/css" height="2365px" preserveAspectRatio="none" style="width:710px;height:2365px;background:#FFFFFF;" version="1.1" viewBox="0 0 710 2365" width="710px" zoomAndPan="magnify"><defs/><g><text fill="#000000" font-family="sans-serif" font-size="14" font-weight="bold" lengthAdjust="spacing" textLength="138" x="282" y="28.5352">OTA Message Flow</text><rect fill="#FFDDDD" height="2315.7148" style="stroke:#181818;stroke-width:0.5;" width="100" x="287.5" y="43.4883"/><text fill="#000000" font-family="sans-serif" font-size="13" font-weight="bold" lengthAdjust="spacing" textLength="64" x="305.5" y="56.0566">3rd party</text><rect fill="#ADD8E6" height="2315.7148" style="stroke:#181818;stroke-width:0.5;" width="113" x="526.5" y="43.4883"/><text fill="#000000" font-family="sans-serif" font-size="13" font-weight="bold" lengthAdjust="spacing" textLength="76" x="545" y="56.0566">Worldticket</text><rect fill="#FFFFFF" height="103.2422" style="stroke:#181818;stroke-width:1.0;" width="10" x="332.5" y="244.2188"/><rect fill="#FFFFFF" height="204.4844" style="stroke:#181818;stroke-width:1.0;" width="10" x="332.5" y="463.3926"/><rect fill="#FFFFFF" height="138.5527" style="stroke:#181818;stroke-width:1.0;" width="10" x="332.5" y="768.498"/><rect fill="#FFFFFF" height="153.8633" style="stroke:#181818;stroke-width:1.0;" width="10" x="332.5" y="1007.6719"/><rect fill="#FFFFFF" height="189.1738" style="stroke:#181818;stroke-width:1.0;" width="10" x="332.5" y="1262.1563"/><rect fill="#FFFFFF" height="301.0371" style="stroke:#181818;stroke-width:1.0;" width="10" x="332.5" y="1504.9512"/><rect fill="#FFFFFF" height="123.2422" style="stroke:#181818;stroke-width:1.0;" width="10" x="332.5" y="1835.2988"/><rect fill="#FFFFFF" height="195.5527" style="stroke:#181818;stroke-width:1.0;" width="10" x="332.5" y="2066.1621"/><rect fill="#FFFFFF" height="28" style="stroke:#181818;stroke-width:1.0;" width="10" x="337.5" y="2103.4727"/><rect fill="#FFFFFF" height="29.3105" style="stroke:#181818;stroke-width:1.0;" width="10" x="547.5" y="543.3242"/><rect fill="#FFFFFF" height="29.3105" style="stroke:#181818;stroke-width:1.0;" width="10" x="547.5" y="848.4297"/><rect fill="#FFFFFF" height="29.3105" style="stroke:#181818;stroke-width:1.0;" width="10" x="547.5" y="1036.9824"/><rect fill="#FFFFFF" height="29.3105" style="stroke:#181818;stroke-width:1.0;" width="10" x="547.5" y="1342.0879"/><rect fill="#FFFFFF" height="29.3105" style="stroke:#181818;stroke-width:1.0;" width="10" x="547.5" y="1681.4355"/><rect fill="#FFFFFF" height="64.6211" style="stroke:#181818;stroke-width:1.0;" width="10" x="547.5" y="1864.6094"/><rect fill="#FFFFFF" height="29.3105" style="stroke:#181818;stroke-width:1.0;" width="10" x="547.5" y="2167.7832"/><rect fill="#FFFFFF" height="29.3105" style="stroke:#181818;stroke-width:1.0;" width="10" x="605" y="273.5293"/><rect fill="none" height="500.2109" style="stroke:#000000;stroke-width:1.5;" width="683" x="10" y="1466.3301"/><line style="stroke:#181818;stroke-width:0.5;stroke-dasharray:5.0,5.0;" x1="71" x2="71" y1="118.9766" y2="355.4609"/><line style="stroke:#A80036;stroke-width:1.0;stroke-dasharray:1.0,4.0;" x1="71" x2="71" y1="355.4609" y2="383.4609"/><line style="stroke:#181818;stroke-width:0.5;stroke-dasharray:5.0,5.0;" x1="71" x2="71" y1="383.4609" y2="675.877"/><line style="stroke:#A80036;stroke-width:1.0;stroke-dasharray:1.0,4.0;" x1="71" x2="71" y1="675.877" y2="703.877"/><line style="stroke:#181818;stroke-width:0.5;stroke-dasharray:5.0,5.0;" x1="71" x2="71" y1="703.877" y2="915.0508"/><line style="stroke:#A80036;stroke-width:1.0;stroke-dasharray:1.0,4.0;" x1="71" x2="71" y1="915.0508" y2="943.0508"/><line style="stroke:#181818;stroke-width:0.5;stroke-dasharray:5.0,5.0;" x1="71" x2="71" y1="943.0508" y2="1169.5352"/><line style="stroke:#A80036;stroke-width:1.0;stroke-dasharray:1.0,4.0;" x1="71" x2="71" y1="1169.5352" y2="1197.5352"/><line style="stroke:#181818;stroke-width:0.5;stroke-dasharray:5.0,5.0;" x1="71" x2="71" y1="1197.5352" y2="1973.541"/><line style="stroke:#A80036;stroke-width:1.0;stroke-dasharray:1.0,4.0;" x1="71" x2="71" y1="1973.541" y2="2001.541"/><line style="stroke:#181818;stroke-width:0.5;stroke-dasharray:5.0,5.0;" x1="71" x2="71" y1="2001.541" y2="2279.7148"/><line style="stroke:#181818;stroke-width:0.5;stroke-dasharray:5.0,5.0;" x1="337.5" x2="337.5" y1="118.9766" y2="355.4609"/><line style="stroke:#A80036;stroke-width:1.0;stroke-dasharray:1.0,4.0;" x1="337.5" x2="337.5" y1="355.4609" y2="383.4609"/><line style="stroke:#181818;stroke-width:0.5;stroke-dasharray:5.0,5.0;" x1="337.5" x2="337.5" y1="383.4609" y2="675.877"/><line style="stroke:#A80036;stroke-width:1.0;stroke-dasharray:1.0,4.0;" x1="337.5" x2="337.5" y1="675.877" y2="703.877"/><line style="stroke:#181818;stroke-width:0.5;stroke-dasharray:5.0,5.0;" x1="337.5" x2="337.5" y1="703.877" y2="915.0508"/><line style="stroke:#A80036;stroke-width:1.0;stroke-dasharray:1.0,4.0;" x1="337.5" x2="337.5" y1="915.0508" y2="943.0508"/><line style="stroke:#181818;stroke-width:0.5;stroke-dasharray:5.0,5.0;" x1="337.5" x2="337.5" y1="943.0508" y2="1169.5352"/><line style="stroke:#A80036;stroke-width:1.0;stroke-dasharray:1.0,4.0;" x1="337.5" x2="337.5" y1="1169.5352" y2="1197.5352"/><line style="stroke:#181818;stroke-width:0.5;stroke-dasharray:5.0,5.0;" x1="337.5" x2="337.5" y1="1197.5352" y2="1973.541"/><line style="stroke:#A80036;stroke-width:1.0;stroke-dasharray:1.0,4.0;" x1="337.5" x2="337.5" y1="1973.541" y2="2001.541"/><line style="stroke:#181818;stroke-width:0.5;stroke-dasharray:5.0,5.0;" x1="337.5" x2="337.5" y1="2001.541" y2="2279.7148"/><line style="stroke:#181818;stroke-width:0.5;stroke-dasharray:5.0,5.0;" x1="552.5" x2="552.5" y1="118.9766" y2="355.4609"/><line style="stroke:#A80036;stroke-width:1.0;stroke-dasharray:1.0,4.0;" x1="552.5" x2="552.5" y1="355.4609" y2="383.4609"/><line style="stroke:#181818;stroke-width:0.5;stroke-dasharray:5.0,5.0;" x1="552.5" x2="552.5" y1="383.4609" y2="675.877"/><line style="stroke:#A80036;stroke-width:1.0;stroke-dasharray:1.0,4.0;" x1="552.5" x2="552.5" y1="675.877" y2="703.877"/><line style="stroke:#181818;stroke-width:0.5;stroke-dasharray:5.0,5.0;" x1="552.5" x2="552.5" y1="703.877" y2="915.0508"/><line style="stroke:#A80036;stroke-width:1.0;stroke-dasharray:1.0,4.0;" x1="552.5" x2="552.5" y1="915.0508" y2="943.0508"/><line style="stroke:#181818;stroke-width:0.5;stroke-dasharray:5.0,5.0;" x1="552.5" x2="552.5" y1="943.0508" y2="1169.5352"/><line style="stroke:#A80036;stroke-width:1.0;stroke-dasharray:1.0,4.0;" x1="552.5" x2="552.5" y1="1169.5352" y2="1197.5352"/><line style="stroke:#181818;stroke-width:0.5;stroke-dasharray:5.0,5.0;" x1="552.5" x2="552.5" y1="1197.5352" y2="1973.541"/><line style="stroke:#A80036;stroke-width:1.0;stroke-dasharray:1.0,4.0;" x1="552.5" x2="552.5" y1="1973.541" y2="2001.541"/><line style="stroke:#181818;stroke-width:0.5;stroke-dasharray:5.0,5.0;" x1="552.5" x2="552.5" y1="2001.541" y2="2279.7148"/><line style="stroke:#181818;stroke-width:0.5;stroke-dasharray:5.0,5.0;" x1="609.5" x2="609.5" y1="118.9766" y2="355.4609"/><line style="stroke:#A80036;stroke-width:1.0;stroke-dasharray:1.0,4.0;" x1="609.5" x2="609.5" y1="355.4609" y2="383.4609"/><line style="stroke:#181818;stroke-width:0.5;stroke-dasharray:5.0,5.0;" x1="609.5" x2="609.5" y1="383.4609" y2="675.877"/><line style="stroke:#A80036;stroke-width:1.0;stroke-dasharray:1.0,4.0;" x1="609.5" x2="609.5" y1="675.877" y2="703.877"/><line style="stroke:#181818;stroke-width:0.5;stroke-dasharray:5.0,5.0;" x1="609.5" x2="609.5" y1="703.877" y2="915.0508"/><line style="stroke:#A80036;stroke-width:1.0;stroke-dasharray:1.0,4.0;" x1="609.5" x2="609.5" y1="915.0508" y2="943.0508"/><line style="stroke:#181818;stroke-width:0.5;stroke-dasharray:5.0,5.0;" x1="609.5" x2="609.5" y1="943.0508" y2="1169.5352"/><line style="stroke:#A80036;stroke-width:1.0;stroke-dasharray:1.0,4.0;" x1="609.5" x2="609.5" y1="1169.5352" y2="1197.5352"/><line style="stroke:#181818;stroke-width:0.5;stroke-dasharray:5.0,5.0;" x1="609.5" x2="609.5" y1="1197.5352" y2="1973.541"/><line style="stroke:#A80036;stroke-width:1.0;stroke-dasharray:1.0,4.0;" x1="609.5" x2="609.5" y1="1973.541" y2="2001.541"/><line style="stroke:#181818;stroke-width:0.5;stroke-dasharray:5.0,5.0;" x1="609.5" x2="609.5" y1="2001.541" y2="2279.7148"/><text fill="#000000" font-family="sans-serif" font-size="14" lengthAdjust="spacing" textLength="97" x="20" y="116.0234">End Customer</text><ellipse cx="71.5" cy="50.9883" fill="#E2E2F0" rx="8" ry="8" style="stroke:#181818;stroke-width:0.5;"/><path d="M71.5,58.9883 L71.5,85.9883 M58.5,66.9883 L84.5,66.9883 M71.5,85.9883 L58.5,100.9883 M71.5,85.9883 L84.5,100.9883 " fill="none" style="stroke:#181818;stroke-width:0.5;"/><text fill="#000000" font-family="sans-serif" font-size="14" lengthAdjust="spacing" textLength="97" x="20" y="2292.25">End Customer</text><ellipse cx="71.5" cy="2303.7031" fill="#E2E2F0" rx="8" ry="8" style="stroke:#181818;stroke-width:0.5;"/><path d="M71.5,2311.7031 L71.5,2338.7031 M58.5,2319.7031 L84.5,2319.7031 M71.5,2338.7031 L58.5,2353.7031 M71.5,2338.7031 L84.5,2353.7031 " fill="none" style="stroke:#181818;stroke-width:0.5;"/><rect fill="#E2E2F0" height="46.9766" rx="2.5" ry="2.5" style="stroke:#181818;stroke-width:0.5;" width="92" x="291.5" y="71"/><text fill="#000000" font-family="sans-serif" font-size="14" lengthAdjust="spacing" textLength="45" x="315" y="91.5352">Airline</text><text fill="#000000" font-family="sans-serif" font-size="14" lengthAdjust="spacing" textLength="78" x="298.5" y="108.0234">Application</text><rect fill="#E2E2F0" height="46.9766" rx="2.5" ry="2.5" style="stroke:#181818;stroke-width:0.5;" width="92" x="291.5" y="2278.7148"/><text fill="#000000" font-family="sans-serif" font-size="14" lengthAdjust="spacing" textLength="45" x="315" y="2299.25">Airline</text><text fill="#000000" font-family="sans-serif" font-size="14" lengthAdjust="spacing" textLength="78" x="298.5" y="2315.7383">Application</text><rect fill="#E2E2F0" height="30.4883" rx="2.5" ry="2.5" style="stroke:#181818;stroke-width:0.5;" width="44" x="530.5" y="87.4883"/><text fill="#000000" font-family="sans-serif" font-size="14" lengthAdjust="spacing" textLength="30" x="537.5" y="108.0234">OTA</text><rect fill="#E2E2F0" height="30.4883" rx="2.5" ry="2.5" style="stroke:#181818;stroke-width:0.5;" width="44" x="530.5" y="2278.7148"/><text fill="#000000" font-family="sans-serif" font-size="14" lengthAdjust="spacing" textLength="30" x="537.5" y="2299.25">OTA</text><rect fill="#E2E2F0" height="30.4883" rx="2.5" ry="2.5" style="stroke:#181818;stroke-width:0.5;" width="51" x="584.5" y="87.4883"/><text fill="#000000" font-family="sans-serif" font-size="14" lengthAdjust="spacing" textLength="37" x="591.5" y="108.0234">SMS5</text><rect fill="#E2E2F0" height="30.4883" rx="2.5" ry="2.5" style="stroke:#181818;stroke-width:0.5;" width="51" x="584.5" y="2278.7148"/><text fill="#000000" font-family="sans-serif" font-size="14" lengthAdjust="spacing" textLength="37" x="591.5" y="2299.25">SMS5</text><rect fill="#FFFFFF" height="103.2422" style="stroke:#181818;stroke-width:1.0;" width="10" x="332.5" y="244.2188"/><rect fill="#FFFFFF" height="204.4844" style="stroke:#181818;stroke-width:1.0;" width="10" x="332.5" y="463.3926"/><rect fill="#FFFFFF" height="138.5527" style="stroke:#181818;stroke-width:1.0;" width="10" x="332.5" y="768.498"/><rect fill="#FFFFFF" height="153.8633" style="stroke:#181818;stroke-width:1.0;" width="10" x="332.5" y="1007.6719"/><rect fill="#FFFFFF" height="189.1738" style="stroke:#181818;stroke-width:1.0;" width="10" x="332.5" y="1262.1563"/><rect fill="#FFFFFF" height="301.0371" style="stroke:#181818;stroke-width:1.0;" width="10" x="332.5" y="1504.9512"/><rect fill="#FFFFFF" height="123.2422" style="stroke:#181818;stroke-width:1.0;" width="10" x="332.5" y="1835.2988"/><rect fill="#FFFFFF" height="195.5527" style="stroke:#181818;stroke-width:1.0;" width="10" x="332.5" y="2066.1621"/><rect fill="#FFFFFF" height="28" style="stroke:#181818;stroke-width:1.0;" width="10" x="337.5" y="2103.4727"/><rect fill="#FFFFFF" height="29.3105" style="stroke:#181818;stroke-width:1.0;" width="10" x="547.5" y="543.3242"/><rect fill="#FFFFFF" height="29.3105" style="stroke:#181818;stroke-width:1.0;" width="10" x="547.5" y="848.4297"/><rect fill="#FFFFFF" height="29.3105" style="stroke:#181818;stroke-width:1.0;" width="10" x="547.5" y="1036.9824"/><rect fill="#FFFFFF" height="29.3105" style="stroke:#181818;stroke-width:1.0;" width="10" x="547.5" y="1342.0879"/><rect fill="#FFFFFF" height="29.3105" style="stroke:#181818;stroke-width:1.0;" width="10" x="547.5" y="1681.4355"/><rect fill="#FFFFFF" height="64.6211" style="stroke:#181818;stroke-width:1.0;" width="10" x="547.5" y="1864.6094"/><rect fill="#FFFFFF" height="29.3105" style="stroke:#181818;stroke-width:1.0;" width="10" x="547.5" y="2167.7832"/><rect fill="#FFFFFF" height="29.3105" style="stroke:#181818;stroke-width:1.0;" width="10" x="605" y="273.5293"/><rect fill="#EEEEEE" height="3" style="stroke:#EEEEEE;stroke-width:1.0;" width="703" x="0" y="149.6318"/><line style="stroke:#000000;stroke-width:1.0;" x1="0" x2="703" y1="149.6318" y2="149.6318"/><line style="stroke:#000000;stroke-width:1.0;" x1="0" x2="703" y1="152.6318" y2="152.6318"/><rect fill="#EEEEEE" height="23.3105" style="stroke:#000000;stroke-width:2.0;" width="180" x="261.5" y="138.9766"/><text fill="#000000" font-family="sans-serif" font-size="13" font-weight="bold" lengthAdjust="spacing" textLength="162" x="267.5" y="155.5449">Use Case : landing page</text><path d="M228,177.2871 L228,217.2871 L446,217.2871 L446,187.2871 L436,177.2871 L228,177.2871 " fill="#FEFFDD" style="stroke:#181818;stroke-width:0.5;"/><path d="M436,177.2871 L436,187.2871 L446,187.2871 L436,177.2871 " fill="#FEFFDD" style="stroke:#181818;stroke-width:0.5;"/><text fill="#000000" font-family="sans-serif" font-size="13" lengthAdjust="spacing" textLength="150" x="234" y="194.8555">Show the route options.</text><text fill="#000000" font-family="sans-serif" font-size="13" lengthAdjust="spacing" textLength="197" x="234" y="210.166">Departure &amp;amp; Arrival airport</text><polygon fill="#181818" points="320.5,240.2188,330.5,244.2188,320.5,248.2188,324.5,244.2188" style="stroke:#181818;stroke-width:1.0;"/><line style="stroke:#181818;stroke-width:1.0;" x1="71.5" x2="326.5" y1="244.2188" y2="244.2188"/><text fill="#000000" font-family="sans-serif" font-size="13" font-weight="bold" lengthAdjust="spacing" textLength="9" x="78.5" y="239.4766">1</text><text fill="#000000" font-family="sans-serif" font-size="13" lengthAdjust="spacing" textLength="90" x="91.5" y="239.4766">open web/app</text><polygon fill="#181818" points="593,269.5293,603,273.5293,593,277.5293,597,273.5293" style="stroke:#181818;stroke-width:1.0;"/><line style="stroke:#181818;stroke-width:1.0;" x1="342.5" x2="599" y1="273.5293" y2="273.5293"/><text fill="#000000" font-family="sans-serif" font-size="13" font-weight="bold" lengthAdjust="spacing" textLength="9" x="349.5" y="268.7871">2</text><text fill="#000000" font-family="sans-serif" font-size="13" lengthAdjust="spacing" textLength="75" x="362.5" y="268.7871">GET /routes</text><polygon fill="#181818" points="353.5,298.8398,343.5,302.8398,353.5,306.8398,349.5,302.8398" style="stroke:#181818;stroke-width:1.0;"/><line style="stroke:#181818;stroke-width:1.0;stroke-dasharray:2.0,2.0;" x1="347.5" x2="609" y1="302.8398" y2="302.8398"/><text fill="#000000" font-family="sans-serif" font-size="13" font-weight="bold" lengthAdjust="spacing" textLength="9" x="359.5" y="298.0977">3</text><text fill="#000000" font-family="sans-serif" font-size="13" lengthAdjust="spacing" textLength="66" x="372.5" y="298.0977">airport list</text><polygon fill="#181818" points="82.5,343.4609,72.5,347.4609,82.5,351.4609,78.5,347.4609" style="stroke:#181818;stroke-width:1.0;"/><line style="stroke:#181818;stroke-width:1.0;stroke-dasharray:2.0,2.0;" x1="76.5" x2="336.5" y1="347.4609" y2="347.4609"/><text fill="#000000" font-family="sans-serif" font-size="13" font-weight="bold" lengthAdjust="spacing" textLength="9" x="88.5" y="335.0635">4</text><text fill="#000000" font-family="sans-serif" font-size="13" lengthAdjust="spacing" textLength="33" x="101.5" y="327.4082">show</text><text fill="#000000" font-family="sans-serif" font-size="13" lengthAdjust="spacing" textLength="139" x="101.5" y="342.7188">origin/destination list</text><rect fill="#EEEEEE" height="3" style="stroke:#EEEEEE;stroke-width:1.0;" width="703" x="0" y="404.1162"/><line style="stroke:#000000;stroke-width:1.0;" x1="0" x2="703" y1="404.1162" y2="404.1162"/><line style="stroke:#000000;stroke-width:1.0;" x1="0" x2="703" y1="407.1162" y2="407.1162"/><rect fill="#EEEEEE" height="23.3105" style="stroke:#000000;stroke-width:2.0;" width="325" x="189" y="393.4609"/><text fill="#000000" font-family="sans-serif" font-size="13" font-weight="bold" lengthAdjust="spacing" textLength="307" x="195" y="410.0293">Use case : show flight availability on calendar</text><polygon fill="#181818" points="320.5,459.3926,330.5,463.3926,320.5,467.3926,324.5,463.3926" style="stroke:#181818;stroke-width:1.0;"/><line style="stroke:#181818;stroke-width:1.0;" x1="71.5" x2="326.5" y1="463.3926" y2="463.3926"/><text fill="#000000" font-family="sans-serif" font-size="13" font-weight="bold" lengthAdjust="spacing" textLength="9" x="78.5" y="450.9951">5</text><text fill="#000000" font-family="sans-serif" font-size="13" lengthAdjust="spacing" textLength="37" x="91.5" y="443.3398">select</text><text fill="#000000" font-family="sans-serif" font-size="13" lengthAdjust="spacing" textLength="115" x="91.5" y="458.6504">origin/destination</text><path d="M347,476.3926 L347,516.3926 L538,516.3926 L538,486.3926 L528,476.3926 L347,476.3926 " fill="#FEFFDD" style="stroke:#181818;stroke-width:0.5;"/><path d="M528,476.3926 L528,486.3926 L538,486.3926 L528,476.3926 " fill="#FEFFDD" style="stroke:#181818;stroke-width:0.5;"/><text fill="#000000" font-family="sans-serif" font-size="13" lengthAdjust="spacing" textLength="120" x="353" y="493.9609">(origin, destination</text><text fill="#000000" font-family="sans-serif" font-size="13" lengthAdjust="spacing" textLength="170" x="353" y="509.2715">, number of pax , pax type)</text><polygon fill="#181818" points="535.5,539.3242,545.5,543.3242,535.5,547.3242,539.5,543.3242" style="stroke:#181818;stroke-width:1.0;"/><line style="stroke:#181818;stroke-width:1.0;" x1="342.5" x2="541.5" y1="543.3242" y2="543.3242"/><text fill="#000000" font-family="sans-serif" font-size="13" font-weight="bold" lengthAdjust="spacing" textLength="9" x="349.5" y="538.582">6</text><text fill="#000000" font-family="sans-serif" font-size="13" lengthAdjust="spacing" textLength="101" x="362.5" y="538.582">OTA_AirAvailRQ</text><polygon fill="#181818" points="353.5,568.6348,343.5,572.6348,353.5,576.6348,349.5,572.6348" style="stroke:#181818;stroke-width:1.0;"/><line style="stroke:#181818;stroke-width:1.0;stroke-dasharray:2.0,2.0;" x1="347.5" x2="551.5" y1="572.6348" y2="572.6348"/><text fill="#000000" font-family="sans-serif" font-size="13" font-weight="bold" lengthAdjust="spacing" textLength="9" x="359.5" y="567.8926">7</text><text fill="#000000" font-family="sans-serif" font-size="13" lengthAdjust="spacing" textLength="98" x="372.5" y="567.8926">OTA_AirAvailRS</text><path d="M347,585.6348 L347,625.6348 L474,625.6348 L474,595.6348 L464,585.6348 L347,585.6348 " fill="#FEFFDD" style="stroke:#181818;stroke-width:0.5;"/><path d="M464,585.6348 L464,595.6348 L474,595.6348 L464,585.6348 " fill="#FEFFDD" style="stroke:#181818;stroke-width:0.5;"/><text fill="#000000" font-family="sans-serif" font-size="13" lengthAdjust="spacing" textLength="106" x="353" y="603.2031">flight availability</text><text fill="#000000" font-family="sans-serif" font-size="13" lengthAdjust="spacing" textLength="78" x="353" y="618.5137">on each RBD</text><polygon fill="#181818" points="82.5,663.877,72.5,667.877,82.5,671.877,78.5,667.877" style="stroke:#181818;stroke-width:1.0;"/><line style="stroke:#181818;stroke-width:1.0;stroke-dasharray:2.0,2.0;" x1="76.5" x2="336.5" y1="667.877" y2="667.877"/><text fill="#000000" font-family="sans-serif" font-size="13" font-weight="bold" lengthAdjust="spacing" textLength="9" x="88.5" y="655.4795">8</text><text fill="#000000" font-family="sans-serif" font-size="13" lengthAdjust="spacing" textLength="90" x="101.5" y="647.8242">show calendar</text><text fill="#000000" font-family="sans-serif" font-size="13" lengthAdjust="spacing" textLength="99" x="101.5" y="663.1348">with availability</text><rect fill="#EEEEEE" height="3" style="stroke:#EEEEEE;stroke-width:1.0;" width="703" x="0" y="724.5322"/><line style="stroke:#000000;stroke-width:1.0;" x1="0" x2="703" y1="724.5322" y2="724.5322"/><line style="stroke:#000000;stroke-width:1.0;" x1="0" x2="703" y1="727.5322" y2="727.5322"/><rect fill="#EEEEEE" height="23.3105" style="stroke:#000000;stroke-width:2.0;" width="175" x="264" y="713.877"/><text fill="#000000" font-family="sans-serif" font-size="13" font-weight="bold" lengthAdjust="spacing" textLength="157" x="270" y="730.4453">Use case : Flight search</text><polygon fill="#181818" points="320.5,764.498,330.5,768.498,320.5,772.498,324.5,768.498" style="stroke:#181818;stroke-width:1.0;"/><line style="stroke:#181818;stroke-width:1.0;" x1="71.5" x2="326.5" y1="768.498" y2="768.498"/><text fill="#000000" font-family="sans-serif" font-size="13" font-weight="bold" lengthAdjust="spacing" textLength="9" x="78.5" y="763.7559">9</text><text fill="#000000" font-family="sans-serif" font-size="13" lengthAdjust="spacing" textLength="4" x="91.5" y="763.7559"> </text><path d="M76,781.498 L76,821.498 L267,821.498 L267,791.498 L257,781.498 L76,781.498 " fill="#FEFFDD" style="stroke:#181818;stroke-width:0.5;"/><path d="M257,781.498 L257,791.498 L267,791.498 L257,781.498 " fill="#FEFFDD" style="stroke:#181818;stroke-width:0.5;"/><text fill="#000000" font-family="sans-serif" font-size="13" lengthAdjust="spacing" textLength="120" x="82" y="799.0664">(origin, destination</text><text fill="#000000" font-family="sans-serif" font-size="13" lengthAdjust="spacing" textLength="170" x="82" y="814.377">, number of pax , pax type)</text><polygon fill="#181818" points="535.5,844.4297,545.5,848.4297,535.5,852.4297,539.5,848.4297" style="stroke:#181818;stroke-width:1.0;"/><line style="stroke:#181818;stroke-width:1.0;" x1="342.5" x2="541.5" y1="848.4297" y2="848.4297"/><text fill="#000000" font-family="sans-serif" font-size="13" font-weight="bold" lengthAdjust="spacing" textLength="18" x="349.5" y="843.6875">10</text><text fill="#000000" font-family="sans-serif" font-size="13" lengthAdjust="spacing" textLength="162" x="371.5" y="843.6875">OTA_AirLowFareSearchRQ</text><polygon fill="#181818" points="353.5,873.7402,343.5,877.7402,353.5,881.7402,349.5,877.7402" style="stroke:#181818;stroke-width:1.0;"/><line style="stroke:#181818;stroke-width:1.0;stroke-dasharray:2.0,2.0;" x1="347.5" x2="551.5" y1="877.7402" y2="877.7402"/><text fill="#000000" font-family="sans-serif" font-size="13" font-weight="bold" lengthAdjust="spacing" textLength="18" x="359.5" y="872.998">11</text><text fill="#000000" font-family="sans-serif" font-size="13" lengthAdjust="spacing" textLength="159" x="381.5" y="872.998">OTA_AirLowFareSearchRS</text><polygon fill="#181818" points="82.5,903.0508,72.5,907.0508,82.5,911.0508,78.5,907.0508" style="stroke:#181818;stroke-width:1.0;"/><line style="stroke:#181818;stroke-width:1.0;stroke-dasharray:2.0,2.0;" x1="76.5" x2="336.5" y1="907.0508" y2="907.0508"/><text fill="#000000" font-family="sans-serif" font-size="13" font-weight="bold" lengthAdjust="spacing" textLength="18" x="88.5" y="902.3086">12</text><text fill="#000000" font-family="sans-serif" font-size="13" lengthAdjust="spacing" textLength="169" x="110.5" y="902.3086">flight list with lowest price</text><rect fill="#EEEEEE" height="3" style="stroke:#EEEEEE;stroke-width:1.0;" width="703" x="0" y="963.7061"/><line style="stroke:#000000;stroke-width:1.0;" x1="0" x2="703" y1="963.7061" y2="963.7061"/><line style="stroke:#000000;stroke-width:1.0;" x1="0" x2="703" y1="966.7061" y2="966.7061"/><rect fill="#EEEEEE" height="23.3105" style="stroke:#000000;stroke-width:2.0;" width="263" x="220" y="953.0508"/><text fill="#000000" font-family="sans-serif" font-size="13" font-weight="bold" lengthAdjust="spacing" textLength="245" x="226" y="969.6191">Use case : User select flight and fare</text><polygon fill="#181818" points="320.5,1003.6719,330.5,1007.6719,320.5,1011.6719,324.5,1007.6719" style="stroke:#181818;stroke-width:1.0;"/><line style="stroke:#181818;stroke-width:1.0;" x1="71.5" x2="326.5" y1="1007.6719" y2="1007.6719"/><text fill="#000000" font-family="sans-serif" font-size="13" font-weight="bold" lengthAdjust="spacing" textLength="18" x="78.5" y="1002.9297">13</text><text fill="#000000" font-family="sans-serif" font-size="13" lengthAdjust="spacing" textLength="65" x="100.5" y="1002.9297">select fare</text><polygon fill="#181818" points="535.5,1032.9824,545.5,1036.9824,535.5,1040.9824,539.5,1036.9824" style="stroke:#181818;stroke-width:1.0;"/><line style="stroke:#181818;stroke-width:1.0;" x1="342.5" x2="541.5" y1="1036.9824" y2="1036.9824"/><text fill="#000000" font-family="sans-serif" font-size="13" font-weight="bold" lengthAdjust="spacing" textLength="18" x="349.5" y="1032.2402">14</text><text fill="#000000" font-family="sans-serif" font-size="13" lengthAdjust="spacing" textLength="100" x="371.5" y="1032.2402">OTA_AirPriceRQ</text><polygon fill="#181818" points="353.5,1062.293,343.5,1066.293,353.5,1070.293,349.5,1066.293" style="stroke:#181818;stroke-width:1.0;"/><line style="stroke:#181818;stroke-width:1.0;stroke-dasharray:2.0,2.0;" x1="347.5" x2="551.5" y1="1066.293" y2="1066.293"/><text fill="#000000" font-family="sans-serif" font-size="13" font-weight="bold" lengthAdjust="spacing" textLength="18" x="359.5" y="1061.5508">15</text><text fill="#000000" font-family="sans-serif" font-size="13" lengthAdjust="spacing" textLength="97" x="381.5" y="1061.5508">OTA_AirPriceRS</text><path d="M347,1079.293 L347,1119.293 L473,1119.293 L473,1089.293 L463,1079.293 L347,1079.293 " fill="#FEFFDD" style="stroke:#181818;stroke-width:0.5;"/><path d="M463,1079.293 L463,1089.293 L473,1089.293 L463,1079.293 " fill="#FEFFDD" style="stroke:#181818;stroke-width:0.5;"/><text fill="#000000" font-family="sans-serif" font-size="13" lengthAdjust="spacing" textLength="99" x="353" y="1096.8613">Price break dow</text><text fill="#000000" font-family="sans-serif" font-size="13" lengthAdjust="spacing" textLength="105" x="353" y="1112.1719">&amp;amp; Fare rules</text><polygon fill="#181818" points="82.5,1157.5352,72.5,1161.5352,82.5,1165.5352,78.5,1161.5352" style="stroke:#181818;stroke-width:1.0;"/><line style="stroke:#181818;stroke-width:1.0;stroke-dasharray:2.0,2.0;" x1="76.5" x2="336.5" y1="1161.5352" y2="1161.5352"/><text fill="#000000" font-family="sans-serif" font-size="13" font-weight="bold" lengthAdjust="spacing" textLength="18" x="88.5" y="1149.1377">16</text><text fill="#000000" font-family="sans-serif" font-size="13" lengthAdjust="spacing" textLength="138" x="110.5" y="1141.4824">show fare break down</text><text fill="#000000" font-family="sans-serif" font-size="13" lengthAdjust="spacing" textLength="97" x="114.5" y="1156.793">and price detail</text><rect fill="#EEEEEE" height="3" style="stroke:#EEEEEE;stroke-width:1.0;" width="703" x="0" y="1218.1904"/><line style="stroke:#000000;stroke-width:1.0;" x1="0" x2="703" y1="1218.1904" y2="1218.1904"/><line style="stroke:#000000;stroke-width:1.0;" x1="0" x2="703" y1="1221.1904" y2="1221.1904"/><rect fill="#EEEEEE" height="23.3105" style="stroke:#000000;stroke-width:2.0;" width="205" x="249" y="1207.5352"/><text fill="#000000" font-family="sans-serif" font-size="13" font-weight="bold" lengthAdjust="spacing" textLength="187" x="255" y="1224.1035">Use case : Make reservation</text><polygon fill="#181818" points="320.5,1258.1563,330.5,1262.1563,320.5,1266.1563,324.5,1262.1563" style="stroke:#181818;stroke-width:1.0;"/><line style="stroke:#181818;stroke-width:1.0;" x1="71.5" x2="326.5" y1="1262.1563" y2="1262.1563"/><text fill="#000000" font-family="sans-serif" font-size="13" font-weight="bold" lengthAdjust="spacing" textLength="18" x="78.5" y="1257.4141">17</text><text fill="#000000" font-family="sans-serif" font-size="13" lengthAdjust="spacing" textLength="129" x="100.5" y="1257.4141">Booking information</text><path d="M347,1275.1563 L347,1315.1563 L496,1315.1563 L496,1285.1563 L486,1275.1563 L347,1275.1563 " fill="#FEFFDD" style="stroke:#181818;stroke-width:0.5;"/><path d="M486,1275.1563 L486,1285.1563 L496,1285.1563 L486,1275.1563 " fill="#FEFFDD" style="stroke:#181818;stroke-width:0.5;"/><text fill="#000000" font-family="sans-serif" font-size="13" lengthAdjust="spacing" textLength="100" x="353" y="1292.7246">Pax name, addr,</text><text fill="#000000" font-family="sans-serif" font-size="13" lengthAdjust="spacing" textLength="128" x="353" y="1308.0352">phone no., CTC, etc.</text><polygon fill="#181818" points="535.5,1338.0879,545.5,1342.0879,535.5,1346.0879,539.5,1342.0879" style="stroke:#181818;stroke-width:1.0;"/><line style="stroke:#181818;stroke-width:1.0;" x1="342.5" x2="541.5" y1="1342.0879" y2="1342.0879"/><text fill="#000000" font-family="sans-serif" font-size="13" font-weight="bold" lengthAdjust="spacing" textLength="18" x="349.5" y="1337.3457">18</text><text fill="#000000" font-family="sans-serif" font-size="13" lengthAdjust="spacing" textLength="101" x="371.5" y="1337.3457">OTA_AirBookRQ</text><polygon fill="#181818" points="353.5,1367.3984,343.5,1371.3984,353.5,1375.3984,349.5,1371.3984" style="stroke:#181818;stroke-width:1.0;"/><line style="stroke:#181818;stroke-width:1.0;stroke-dasharray:2.0,2.0;" x1="347.5" x2="551.5" y1="1371.3984" y2="1371.3984"/><text fill="#000000" font-family="sans-serif" font-size="13" font-weight="bold" lengthAdjust="spacing" textLength="18" x="359.5" y="1366.6563">19</text><text fill="#000000" font-family="sans-serif" font-size="13" lengthAdjust="spacing" textLength="98" x="381.5" y="1366.6563">OTA_AirBookRS</text><path d="M347,1384.3984 L347,1424.3984 L559,1424.3984 L559,1394.3984 L549,1384.3984 L347,1384.3984 " fill="#FEFFDD" style="stroke:#181818;stroke-width:0.5;"/><path d="M549,1384.3984 L549,1394.3984 L559,1394.3984 L549,1384.3984 " fill="#FEFFDD" style="stroke:#181818;stroke-width:0.5;"/><text fill="#000000" font-family="sans-serif" font-size="13" lengthAdjust="spacing" textLength="191" x="353" y="1401.9668">Success : Booking information</text><text fill="#000000" font-family="sans-serif" font-size="13" lengthAdjust="spacing" textLength="123" x="353" y="1417.2773">PNR Record Locator</text><polygon fill="#181818" points="82.5,1447.3301,72.5,1451.3301,82.5,1455.3301,78.5,1451.3301" style="stroke:#181818;stroke-width:1.0;"/><line style="stroke:#181818;stroke-width:1.0;stroke-dasharray:2.0,2.0;" x1="76.5" x2="336.5" y1="1451.3301" y2="1451.3301"/><text fill="#000000" font-family="sans-serif" font-size="13" font-weight="bold" lengthAdjust="spacing" textLength="18" x="88.5" y="1446.5879">20</text><text fill="#000000" font-family="sans-serif" font-size="13" lengthAdjust="spacing" textLength="128" x="110.5" y="1446.5879">show booking detail</text><path d="M10,1466.3301 L72,1466.3301 L72,1473.6406 L62,1483.6406 L10,1483.6406 L10,1466.3301 " fill="#EEEEEE" style="stroke:#000000;stroke-width:1.5;"/><rect fill="none" height="500.2109" style="stroke:#000000;stroke-width:1.5;" width="683" x="10" y="1466.3301"/><text fill="#000000" font-family="sans-serif" font-size="13" font-weight="bold" lengthAdjust="spacing" textLength="17" x="25" y="1479.8984">alt</text><text fill="#000000" font-family="sans-serif" font-size="11" font-weight="bold" lengthAdjust="spacing" textLength="98" x="87" y="1478.9648">[modify booking]</text><polygon fill="#181818" points="320.5,1500.9512,330.5,1504.9512,320.5,1508.9512,324.5,1504.9512" style="stroke:#181818;stroke-width:1.0;"/><line style="stroke:#181818;stroke-width:1.0;" x1="71.5" x2="326.5" y1="1504.9512" y2="1504.9512"/><text fill="#000000" font-family="sans-serif" font-size="13" font-weight="bold" lengthAdjust="spacing" textLength="18" x="78.5" y="1500.209">21</text><text fill="#000000" font-family="sans-serif" font-size="13" lengthAdjust="spacing" textLength="146" x="100.5" y="1500.209">RepriceRequired="true"</text><path d="M76,1517.9512 L76,1603.9512 L221,1603.9512 L221,1527.9512 L211,1517.9512 L76,1517.9512 " fill="#FEFFDD" style="stroke:#181818;stroke-width:0.5;"/><path d="M211,1517.9512 L211,1527.9512 L221,1527.9512 L211,1517.9512 " fill="#FEFFDD" style="stroke:#181818;stroke-width:0.5;"/><text fill="#000000" font-family="sans-serif" font-size="13" lengthAdjust="spacing" textLength="124" x="82" y="1535.5195">Modification can be</text><text fill="#000000" font-family="sans-serif" font-size="13" lengthAdjust="spacing" textLength="95" x="82" y="1550.8301">- change name</text><text fill="#000000" font-family="sans-serif" font-size="13" lengthAdjust="spacing" textLength="34" x="82" y="1566.1406">- SSR</text><text fill="#000000" font-family="sans-serif" font-size="13" lengthAdjust="spacing" textLength="56" x="82" y="1581.4512">- rebook</text><text fill="#000000" font-family="sans-serif" font-size="13" lengthAdjust="spacing" textLength="31" x="82" y="1596.7617">- etc</text><path d="M347,1614.5039 L347,1654.5039 L514,1654.5039 L514,1624.5039 L504,1614.5039 L347,1614.5039 " fill="#FEFFDD" style="stroke:#181818;stroke-width:0.5;"/><path d="M504,1614.5039 L504,1624.5039 L514,1624.5039 L504,1614.5039 " fill="#FEFFDD" style="stroke:#181818;stroke-width:0.5;"/><text fill="#000000" font-family="sans-serif" font-size="13" lengthAdjust="spacing" textLength="146" x="353" y="1632.0723">RepriceRequired="true"</text><text fill="#000000" font-family="sans-serif" font-size="13" font-weight="bold" lengthAdjust="spacing" textLength="60" x="353" y="1647.3828">get price</text><text fill="#000000" font-family="sans-serif" font-size="13" lengthAdjust="spacing" textLength="69" x="417" y="1647.3828">not modify</text><polygon fill="#181818" points="535.5,1677.4355,545.5,1681.4355,535.5,1685.4355,539.5,1681.4355" style="stroke:#181818;stroke-width:1.0;"/><line style="stroke:#181818;stroke-width:1.0;" x1="342.5" x2="541.5" y1="1681.4355" y2="1681.4355"/><text fill="#000000" font-family="sans-serif" font-size="13" font-weight="bold" lengthAdjust="spacing" textLength="18" x="349.5" y="1676.6934">22</text><text fill="#000000" font-family="sans-serif" font-size="13" lengthAdjust="spacing" textLength="144" x="371.5" y="1676.6934">OTA_AirBookModifyRQ</text><polygon fill="#181818" points="353.5,1706.7461,343.5,1710.7461,353.5,1714.7461,349.5,1710.7461" style="stroke:#181818;stroke-width:1.0;"/><line style="stroke:#181818;stroke-width:1.0;stroke-dasharray:2.0,2.0;" x1="347.5" x2="551.5" y1="1710.7461" y2="1710.7461"/><text fill="#000000" font-family="sans-serif" font-size="13" font-weight="bold" lengthAdjust="spacing" textLength="18" x="359.5" y="1706.0039">23</text><text fill="#000000" font-family="sans-serif" font-size="13" lengthAdjust="spacing" textLength="141" x="381.5" y="1706.0039">OTA_AirBookModifyRS</text><path d="M347,1723.7461 L347,1763.7461 L526,1763.7461 L526,1733.7461 L516,1723.7461 L347,1723.7461 " fill="#FEFFDD" style="stroke:#181818;stroke-width:0.5;"/><path d="M516,1723.7461 L516,1733.7461 L526,1733.7461 L516,1723.7461 " fill="#FEFFDD" style="stroke:#181818;stroke-width:0.5;"/><text fill="#000000" font-family="sans-serif" font-size="13" lengthAdjust="spacing" textLength="44" x="353" y="1741.3145">Service</text><text fill="#000000" font-family="sans-serif" font-size="13" font-weight="bold" lengthAdjust="spacing" textLength="75" x="401" y="1741.3145">fee/charge</text><text fill="#000000" font-family="sans-serif" font-size="13" lengthAdjust="spacing" textLength="158" x="353" y="1756.625">for booking modification</text><polygon fill="#181818" points="82.5,1801.9883,72.5,1805.9883,82.5,1809.9883,78.5,1805.9883" style="stroke:#181818;stroke-width:1.0;"/><line style="stroke:#181818;stroke-width:1.0;stroke-dasharray:2.0,2.0;" x1="76.5" x2="336.5" y1="1805.9883" y2="1805.9883"/><text fill="#000000" font-family="sans-serif" font-size="13" font-weight="bold" lengthAdjust="spacing" textLength="18" x="88.5" y="1793.5908">24</text><text fill="#000000" font-family="sans-serif" font-size="13" lengthAdjust="spacing" textLength="33" x="110.5" y="1785.9355">show</text><text fill="#000000" font-family="sans-serif" font-size="13" font-weight="bold" lengthAdjust="spacing" textLength="75" x="147.5" y="1785.9355">fee/charge</text><text fill="#000000" font-family="sans-serif" font-size="13" lengthAdjust="spacing" textLength="122" x="110.5" y="1801.2461">for booking modify</text><polygon fill="#181818" points="320.5,1831.2988,330.5,1835.2988,320.5,1839.2988,324.5,1835.2988" style="stroke:#181818;stroke-width:1.0;"/><line style="stroke:#181818;stroke-width:1.0;" x1="71.5" x2="326.5" y1="1835.2988" y2="1835.2988"/><text fill="#000000" font-family="sans-serif" font-size="13" font-weight="bold" lengthAdjust="spacing" textLength="18" x="78.5" y="1830.5566">25</text><text fill="#000000" font-family="sans-serif" font-size="13" font-weight="bold" lengthAdjust="spacing" textLength="48" x="100.5" y="1830.5566">default</text><text fill="#000000" font-family="sans-serif" font-size="13" lengthAdjust="spacing" textLength="168" x="152.5" y="1830.5566">or RepriceRequired="false"</text><polygon fill="#181818" points="535.5,1860.6094,545.5,1864.6094,535.5,1868.6094,539.5,1864.6094" style="stroke:#181818;stroke-width:1.0;"/><line style="stroke:#181818;stroke-width:1.0;" x1="342.5" x2="541.5" y1="1864.6094" y2="1864.6094"/><text fill="#000000" font-family="sans-serif" font-size="13" font-weight="bold" lengthAdjust="spacing" textLength="18" x="349.5" y="1859.8672">26</text><text fill="#000000" font-family="sans-serif" font-size="13" lengthAdjust="spacing" textLength="144" x="371.5" y="1859.8672">OTA_AirBookModifyRQ</text><path d="M562,1877.6094 L562,1902.6094 L683,1902.6094 L683,1887.6094 L673,1877.6094 L562,1877.6094 " fill="#FEFFDD" style="stroke:#181818;stroke-width:0.5;"/><path d="M673,1877.6094 L673,1887.6094 L683,1887.6094 L673,1877.6094 " fill="#FEFFDD" style="stroke:#181818;stroke-width:0.5;"/><text fill="#000000" font-family="sans-serif" font-size="13" lengthAdjust="spacing" textLength="100" x="568" y="1895.1777">modify booking</text><polygon fill="#181818" points="353.5,1925.2305,343.5,1929.2305,353.5,1933.2305,349.5,1929.2305" style="stroke:#181818;stroke-width:1.0;"/><line style="stroke:#181818;stroke-width:1.0;stroke-dasharray:2.0,2.0;" x1="347.5" x2="551.5" y1="1929.2305" y2="1929.2305"/><text fill="#000000" font-family="sans-serif" font-size="13" font-weight="bold" lengthAdjust="spacing" textLength="18" x="359.5" y="1924.4883">27</text><text fill="#000000" font-family="sans-serif" font-size="13" lengthAdjust="spacing" textLength="141" x="381.5" y="1924.4883">OTA_AirBookModifyRS</text><polygon fill="#181818" points="82.5,1954.541,72.5,1958.541,82.5,1962.541,78.5,1958.541" style="stroke:#181818;stroke-width:1.0;"/><line style="stroke:#181818;stroke-width:1.0;stroke-dasharray:2.0,2.0;" x1="76.5" x2="336.5" y1="1958.541" y2="1958.541"/><text fill="#000000" font-family="sans-serif" font-size="13" font-weight="bold" lengthAdjust="spacing" textLength="18" x="88.5" y="1953.7988">28</text><text fill="#000000" font-family="sans-serif" font-size="13" lengthAdjust="spacing" textLength="137" x="110.5" y="1953.7988">show booking modify</text><rect fill="#EEEEEE" height="3" style="stroke:#EEEEEE;stroke-width:1.0;" width="703" x="0" y="2022.1963"/><line style="stroke:#000000;stroke-width:1.0;" x1="0" x2="703" y1="2022.1963" y2="2022.1963"/><line style="stroke:#000000;stroke-width:1.0;" x1="0" x2="703" y1="2025.1963" y2="2025.1963"/><rect fill="#EEEEEE" height="23.3105" style="stroke:#000000;stroke-width:2.0;" width="176" x="263.5" y="2011.541"/><text fill="#000000" font-family="sans-serif" font-size="13" font-weight="bold" lengthAdjust="spacing" textLength="158" x="269.5" y="2028.1094">Use case : issue e ticket</text><polygon fill="#181818" points="320.5,2062.1621,330.5,2066.1621,320.5,2070.1621,324.5,2066.1621" style="stroke:#181818;stroke-width:1.0;"/><line style="stroke:#181818;stroke-width:1.0;" x1="71.5" x2="326.5" y1="2066.1621" y2="2066.1621"/><text fill="#000000" font-family="sans-serif" font-size="13" font-weight="bold" lengthAdjust="spacing" textLength="18" x="78.5" y="2061.4199">29</text><text fill="#000000" font-family="sans-serif" font-size="13" lengthAdjust="spacing" textLength="21" x="100.5" y="2061.4199">Pay</text><line style="stroke:#181818;stroke-width:1.0;" x1="347.5" x2="389.5" y1="2095.4727" y2="2095.4727"/><line style="stroke:#181818;stroke-width:1.0;" x1="389.5" x2="389.5" y1="2095.4727" y2="2108.4727"/><line style="stroke:#181818;stroke-width:1.0;" x1="348.5" x2="389.5" y1="2108.4727" y2="2108.4727"/><polygon fill="#181818" points="358.5,2104.4727,348.5,2108.4727,358.5,2112.4727,354.5,2108.4727" style="stroke:#181818;stroke-width:1.0;"/><text fill="#000000" font-family="sans-serif" font-size="13" font-weight="bold" lengthAdjust="spacing" textLength="18" x="354.5" y="2090.7305">30</text><text fill="#000000" font-family="sans-serif" font-size="13" lengthAdjust="spacing" textLength="106" x="376.5" y="2090.7305">Process payment</text><polygon fill="#181818" points="535.5,2163.7832,545.5,2167.7832,535.5,2171.7832,539.5,2167.7832" style="stroke:#181818;stroke-width:1.0;"/><line style="stroke:#181818;stroke-width:1.0;" x1="342.5" x2="541.5" y1="2167.7832" y2="2167.7832"/><text fill="#000000" font-family="sans-serif" font-size="13" font-weight="bold" lengthAdjust="spacing" textLength="18" x="349.5" y="2163.041">31</text><text fill="#000000" font-family="sans-serif" font-size="13" lengthAdjust="spacing" textLength="161" x="371.5" y="2163.041">OTA_AirDemandTicketRQ</text><polygon fill="#181818" points="353.5,2193.0938,343.5,2197.0938,353.5,2201.0938,349.5,2197.0938" style="stroke:#181818;stroke-width:1.0;"/><line style="stroke:#181818;stroke-width:1.0;stroke-dasharray:2.0,2.0;" x1="347.5" x2="551.5" y1="2197.0938" y2="2197.0938"/><text fill="#000000" font-family="sans-serif" font-size="13" font-weight="bold" lengthAdjust="spacing" textLength="18" x="359.5" y="2192.3516">32</text><text fill="#000000" font-family="sans-serif" font-size="13" lengthAdjust="spacing" textLength="158" x="381.5" y="2192.3516">OTA_AirDemandTicketRS</text><path d="M347,2210.0938 L347,2235.0938 L544,2235.0938 L544,2220.0938 L534,2210.0938 L347,2210.0938 " fill="#FEFFDD" style="stroke:#181818;stroke-width:0.5;"/><path d="M534,2210.0938 L534,2220.0938 L544,2220.0938 L534,2210.0938 " fill="#FEFFDD" style="stroke:#181818;stroke-width:0.5;"/><text fill="#000000" font-family="sans-serif" font-size="13" lengthAdjust="spacing" textLength="176" x="353" y="2227.6621">Success : ticket information</text><polygon fill="#181818" points="82.5,2257.7148,72.5,2261.7148,82.5,2265.7148,78.5,2261.7148" style="stroke:#181818;stroke-width:1.0;"/><line style="stroke:#181818;stroke-width:1.0;stroke-dasharray:2.0,2.0;" x1="76.5" x2="336.5" y1="2261.7148" y2="2261.7148"/><text fill="#000000" font-family="sans-serif" font-size="13" font-weight="bold" lengthAdjust="spacing" textLength="18" x="88.5" y="2256.9727">33</text><text fill="#000000" font-family="sans-serif" font-size="13" lengthAdjust="spacing" textLength="120" x="110.5" y="2256.9727">booking confirmed</text></g><desc>@startuml
autonumber

title OTA Message Flow

actor &amp;quot;End Customer&amp;quot; as customer
box &amp;quot;3rd party&amp;quot; #ffdddd
participant &amp;quot;Airline\nApplication&amp;quot; as clientApp
end box
box &amp;quot;Worldticket&amp;quot; #lightblue
participant &amp;quot;OTA&amp;quot; as ota
participant SMS5 as sms
end box

== Use Case : landing page ==
note over clientApp
Show the route options.
Departure &amp;amp;amp; Arrival airport
end note
customer -&amp;gt; clientApp : open web/app
activate clientApp
clientApp -&amp;gt; sms : GET /routes
activate sms
clientApp &amp;lt;-- sms : airport list
deactivate sms
customer &amp;lt;-- clientApp : show \norigin/destination list
deactivate clientApp
deactivate customer

...
== Use case : show flight availability on calendar ==
customer -&amp;gt; clientApp : select\norigin/destination
activate clientApp
note right clientApp
(origin, destination
, number of pax , pax type)
end note
clientApp -&amp;gt; ota : OTA_AirAvailRQ
activate ota
clientApp &amp;lt;-- ota : OTA_AirAvailRS
deactivate ota
note right clientApp
flight availability
on each RBD
end note
customer &amp;lt;-- clientApp : show calendar \nwith availability
deactivate clientApp

...
== Use case : Flight search ==
customer -&amp;gt; clientApp
note right customer
(origin, destination
, number of pax , pax type)
end note
activate clientApp
clientApp -&amp;gt; ota : OTA_AirLowFareSearchRQ
activate ota
clientApp &amp;lt;-- ota : OTA_AirLowFareSearchRS
deactivate ota
customer &amp;lt;-- clientApp : flight list with lowest price
deactivate clientApp

...
== Use case : User select flight and fare ==
customer -&amp;gt; clientApp : select fare
activate clientApp
clientApp -&amp;gt; ota : OTA_AirPriceRQ
activate ota
clientApp &amp;lt;-- ota : OTA_AirPriceRS
deactivate ota
note right clientApp
Price break dow
&amp;amp;amp; Fare rules
end note
customer &amp;lt;-- clientApp : show fare break down\n and price detail
deactivate clientApp

...
== Use case : Make reservation ==
customer -&amp;gt; clientApp : Booking information
activate clientApp
note right clientApp
Pax name, addr,
phone no., CTC, etc.
end note
clientApp -&amp;gt; ota : OTA_AirBookRQ
activate ota
clientApp &amp;lt;-- ota : OTA_AirBookRS
deactivate ota
note right clientApp
Success : Booking information
PNR Record Locator
end note
customer &amp;lt;-- clientApp : show booking detail
deactivate clientApp

alt modify booking
customer -&amp;gt; clientApp : RepriceRequired=&amp;quot;true&amp;quot;
note right customer
Modification can be
- change name
- SSR
- rebook
- etc
end note
note right clientApp
RepriceRequired=&amp;quot;true&amp;quot;
**get price** not modify
end note
activate clientApp
clientApp -&amp;gt; ota : OTA_AirBookModifyRQ
activate ota
clientApp &amp;lt;-- ota : OTA_AirBookModifyRS
deactivate ota
note right clientApp
Service **fee/charge**
for booking modification
end note
customer &amp;lt;-- clientApp : show **fee/charge**\nfor booking modify
deactivate clientApp
customer -&amp;gt; clientApp : **default** or RepriceRequired=&amp;quot;false&amp;quot;
activate clientApp
clientApp -&amp;gt; ota : OTA_AirBookModifyRQ
activate ota
note right ota : modify booking
clientApp &amp;lt;-- ota : OTA_AirBookModifyRS
deactivate ota
customer &amp;lt;-- clientApp : show booking modify
deactivate clientApp
end

...
== Use case : issue e ticket ==
customer -&amp;gt; clientApp : Pay
activate clientApp
clientApp -&amp;gt; clientApp : Process payment
activate clientApp
deactivate clientApp
clientApp -&amp;gt; ota : OTA_AirDemandTicketRQ
activate ota
clientApp &amp;lt;-- ota : OTA_AirDemandTicketRS
deactivate ota
note right clientApp
Success : ticket information
end note
customer &amp;lt;-- clientApp : booking confirmed
deactivate clientApp
@enduml</desc></svg>