<svg xmlns="http://www.w3.org/2000/svg" xmlns:xlink="http://www.w3.org/1999/xlink" contentStyleType="text/css" data-diagram-type="SEQUENCE" height="2084px" preserveAspectRatio="none" style="width:702px;height:2084px;background:#FFFFFF;" version="1.1" viewBox="0 0 702 2084" width="702px" zoomAndPan="magnify"><title>Offer Context flow</title><defs/><g><text fill="#000000" font-family="sans-serif" font-size="14" font-weight="bold" lengthAdjust="spacing" textLength="134.2373" x="280.3162" y="28.5352">Offer Context flow</text><rect fill="#ADD8E6" height="2034.9199" style="stroke:#181818;stroke-width:0.5;" width="111.6123" x="300.3408" y="43.4883"/><text fill="#000000" font-family="sans-serif" font-size="13" font-weight="bold" lengthAdjust="spacing" textLength="28.9707" x="339.5193" y="56.0566">GO7</text><rect fill="#FFC0CB" height="2034.9199" style="stroke:#181818;stroke-width:0.5;" width="44.8184" x="578.1992" y="43.4883"/><text fill="#000000" font-family="sans-serif" font-size="13" font-weight="bold" lengthAdjust="spacing" textLength="22.8262" x="587.053" y="56.0566">PSS</text><rect fill="#FFFFFF" fill-opacity="0.00000" height="75.9316" style="stroke:#000000;stroke-width:1.5;" width="334.6768" x="294.3408" y="476.3926"/><rect fill="#FFFFFF" fill-opacity="0.00000" height="75.9316" style="stroke:#000000;stroke-width:1.5;" width="334.6768" x="294.3408" y="1053.293"/><rect fill="#FFFFFF" fill-opacity="0.00000" height="75.9316" style="stroke:#000000;stroke-width:1.5;" width="334.6768" x="294.3408" y="1448.3301"/><g><title>End customer</title><rect fill="#FFFFFF" fill-opacity="0.00000" height="1879.9434" width="8" x="50.4741" y="118.9766"/><line style="stroke:#181818;stroke-width:0.5;stroke-dasharray:5.0,5.0;" x1="54" x2="54" y1="118.9766" y2="1998.9199"/></g><g><title>go7-gateway</title><rect fill="#FFFFFF" fill-opacity="0.00000" height="1879.9434" width="8" x="352.147" y="118.9766"/><line style="stroke:#181818;stroke-width:0.5;stroke-dasharray:5.0,5.0;" x1="355.3408" x2="355.3408" y1="118.9766" y2="1998.9199"/></g><g><title>PSS</title><rect fill="#FFFFFF" fill-opacity="0.00000" height="1879.9434" width="8" x="596.6084" y="118.9766"/><line style="stroke:#181818;stroke-width:0.5;stroke-dasharray:5.0,5.0;" x1="600.1992" x2="600.1992" y1="118.9766" y2="1998.9199"/></g><g><text fill="#000000" font-family="sans-serif" font-size="14" lengthAdjust="spacing" textLength="92.9482" x="5" y="116.0234">End customer</text><ellipse cx="54.4741" cy="50.9883" fill="#E2E2F0" rx="8" ry="8" style="stroke:#181818;stroke-width:0.5;"/><path d="M54.4741,58.9883 L54.4741,85.9883 M41.4741,66.9883 L67.4741,66.9883 M54.4741,85.9883 L41.4741,100.9883 M54.4741,85.9883 L67.4741,100.9883 " fill="#FFFFFF" fill-opacity="0.00000" style="stroke:#181818;stroke-width:0.5;"/></g><g><text fill="#000000" font-family="sans-serif" font-size="14" lengthAdjust="spacing" textLength="92.9482" x="5" y="2011.4551">End customer</text><ellipse cx="54.4741" cy="2022.9082" fill="#E2E2F0" rx="8" ry="8" style="stroke:#181818;stroke-width:0.5;"/><path d="M54.4741,2030.9082 L54.4741,2057.9082 M41.4741,2038.9082 L67.4741,2038.9082 M54.4741,2057.9082 L41.4741,2072.9082 M54.4741,2057.9082 L67.4741,2072.9082 " fill="#FFFFFF" fill-opacity="0.00000" style="stroke:#181818;stroke-width:0.5;"/></g><g><rect fill="#E2E2F0" height="30.4883" rx="2.5" ry="2.5" style="stroke:#181818;stroke-width:0.5;" width="103.6123" x="304.3408" y="87.4883"/><text fill="#000000" font-family="sans-serif" font-size="14" lengthAdjust="spacing" textLength="89.6123" x="311.3408" y="108.0234">go7-gateway</text></g><g><rect fill="#E2E2F0" height="30.4883" rx="2.5" ry="2.5" style="stroke:#181818;stroke-width:0.5;" width="103.6123" x="304.3408" y="1997.9199"/><text fill="#000000" font-family="sans-serif" font-size="14" lengthAdjust="spacing" textLength="89.6123" x="311.3408" y="2018.4551">go7-gateway</text></g><g><rect fill="#E2E2F0" height="30.4883" rx="2.5" ry="2.5" style="stroke:#181818;stroke-width:0.5;" width="36.8184" x="582.1992" y="87.4883"/><text fill="#000000" font-family="sans-serif" font-size="14" lengthAdjust="spacing" textLength="22.8184" x="589.1992" y="108.0234">PSS</text></g><g><rect fill="#E2E2F0" height="30.4883" rx="2.5" ry="2.5" style="stroke:#181818;stroke-width:0.5;" width="36.8184" x="582.1992" y="1997.9199"/><text fill="#000000" font-family="sans-serif" font-size="14" lengthAdjust="spacing" textLength="22.8184" x="589.1992" y="2018.4551">PSS</text></g><rect fill="#EEEEEE" height="3" style="stroke:#EEEEEE;stroke-width:1;" width="695.8696" x="0" y="149.6318"/><line style="stroke:#000000;stroke-width:1;" x1="0" x2="695.8696" y1="149.6318" y2="149.6318"/><line style="stroke:#000000;stroke-width:1;" x1="0" x2="695.8696" y1="152.6318" y2="152.6318"/><rect fill="#EEEEEE" height="23.3105" style="stroke:#000000;stroke-width:2;" width="229.0776" x="233.396" y="138.9766"/><text fill="#000000" font-family="sans-serif" font-size="13" font-weight="bold" lengthAdjust="spacing" textLength="210.793" x="239.396" y="155.5449">Use case: Find Available Routes</text><g><polygon fill="#181818" points="344.147,200.2529,354.147,204.2529,344.147,208.2529,348.147,204.2529" style="stroke:#181818;stroke-width:1;"/><line style="stroke:#181818;stroke-width:1;" x1="54.4741" x2="350.147" y1="204.2529" y2="204.2529"/><text fill="#000000" font-family="sans-serif" font-size="13" font-weight="bold" lengthAdjust="spacing" textLength="8.5757" x="61.4741" y="199.5107">1</text><text fill="#000000" font-family="sans-serif" font-size="13" lengthAdjust="spacing" textLength="178.7944" x="74.0498" y="199.5107">query: Find Available Routes</text></g><path d="M361,177.2871 L361,217.2871 L571,217.2871 L571,187.2871 L561,177.2871 L361,177.2871 " fill="#FEFFDD" style="stroke:#181818;stroke-width:0.5;"/><path d="M561,177.2871 L561,187.2871 L571,187.2871 L561,177.2871 " fill="#FEFFDD" style="stroke:#181818;stroke-width:0.5;"/><text fill="#000000" font-family="sans-serif" font-size="13" lengthAdjust="spacing" textLength="153.1563" x="367" y="194.8555">Show the routes options</text><text fill="#000000" font-family="sans-serif" font-size="13" lengthAdjust="spacing" textLength="189.1855" x="367" y="210.166">Departure and Arrival airports</text><g><polygon fill="#181818" points="65.4741,240.2188,55.4741,244.2188,65.4741,248.2188,61.4741,244.2188" style="stroke:#181818;stroke-width:1;"/><line style="stroke:#181818;stroke-width:1;" x1="59.4741" x2="355.147" y1="244.2188" y2="244.2188"/><text fill="#000000" font-family="sans-serif" font-size="13" font-weight="bold" lengthAdjust="spacing" textLength="8.5757" x="71.4741" y="239.4766">2</text><text fill="#000000" font-family="sans-serif" font-size="13" lengthAdjust="spacing" textLength="142.3525" x="84.0498" y="239.4766">List of available routes</text></g><rect fill="#EEEEEE" height="3" style="stroke:#EEEEEE;stroke-width:1;" width="695.8696" x="0" y="272.874"/><line style="stroke:#000000;stroke-width:1;" x1="0" x2="695.8696" y1="272.874" y2="272.874"/><line style="stroke:#000000;stroke-width:1;" x1="0" x2="695.8696" y1="275.874" y2="275.874"/><rect fill="#EEEEEE" height="23.3105" style="stroke:#000000;stroke-width:2;" width="223.041" x="236.4143" y="262.2188"/><text fill="#000000" font-family="sans-serif" font-size="13" font-weight="bold" lengthAdjust="spacing" textLength="204.7563" x="242.4143" y="278.7871">Use case: Calendar Availability</text><g><polygon fill="#181818" points="344.147,323.4951,354.147,327.4951,344.147,331.4951,348.147,327.4951" style="stroke:#181818;stroke-width:1;"/><line style="stroke:#181818;stroke-width:1;" x1="54.4741" x2="350.147" y1="327.4951" y2="327.4951"/><text fill="#000000" font-family="sans-serif" font-size="13" font-weight="bold" lengthAdjust="spacing" textLength="8.5757" x="61.4741" y="322.7529">3</text><text fill="#000000" font-family="sans-serif" font-size="13" lengthAdjust="spacing" textLength="172.5483" x="74.0498" y="322.7529">query: Calendar Availability</text></g><path d="M361,300.5293 L361,340.5293 L564,340.5293 L564,310.5293 L554,300.5293 L361,300.5293 " fill="#FEFFDD" style="stroke:#181818;stroke-width:0.5;"/><path d="M554,300.5293 L554,310.5293 L564,310.5293 L554,300.5293 " fill="#FEFFDD" style="stroke:#181818;stroke-width:0.5;"/><text fill="#000000" font-family="sans-serif" font-size="13" lengthAdjust="spacing" textLength="182.2729" x="367" y="318.0977">Low fare calendar availability</text><text fill="#000000" font-family="sans-serif" font-size="13" lengthAdjust="spacing" textLength="172.8213" x="367" y="333.4082">Lowest price per flight date</text><g><polygon fill="#181818" points="65.4741,363.4609,55.4741,367.4609,65.4741,371.4609,61.4741,367.4609" style="stroke:#181818;stroke-width:1;"/><line style="stroke:#181818;stroke-width:1;" x1="59.4741" x2="355.147" y1="367.4609" y2="367.4609"/><text fill="#000000" font-family="sans-serif" font-size="13" font-weight="bold" lengthAdjust="spacing" textLength="8.5757" x="71.4741" y="362.7188">4</text><text fill="#000000" font-family="sans-serif" font-size="13" lengthAdjust="spacing" textLength="178.5977" x="84.0498" y="362.7188">List of calendar availabilities</text></g><rect fill="#EEEEEE" height="3" style="stroke:#EEEEEE;stroke-width:1;" width="695.8696" x="0" y="396.1162"/><line style="stroke:#000000;stroke-width:1;" x1="0" x2="695.8696" y1="396.1162" y2="396.1162"/><line style="stroke:#000000;stroke-width:1;" x1="0" x2="695.8696" y1="399.1162" y2="399.1162"/><rect fill="#EEEEEE" height="23.3105" style="stroke:#000000;stroke-width:2;" width="217.417" x="239.2263" y="385.4609"/><text fill="#000000" font-family="sans-serif" font-size="13" font-weight="bold" lengthAdjust="spacing" textLength="199.1323" x="245.2263" y="402.0293">Use case: Flight Offers Search</text><g><polygon fill="#181818" points="344.147,446.7373,354.147,450.7373,344.147,454.7373,348.147,450.7373" style="stroke:#181818;stroke-width:1;"/><line style="stroke:#181818;stroke-width:1;" x1="54.4741" x2="350.147" y1="450.7373" y2="450.7373"/><text fill="#000000" font-family="sans-serif" font-size="13" font-weight="bold" lengthAdjust="spacing" textLength="8.5757" x="61.4741" y="445.9951">5</text><text fill="#000000" font-family="sans-serif" font-size="13" lengthAdjust="spacing" textLength="189.2109" x="74.0498" y="445.9951">mutation: Flight Offers Search</text></g><path d="M361,423.7715 L361,463.7715 L548,463.7715 L548,433.7715 L538,423.7715 L361,423.7715 " fill="#FEFFDD" style="stroke:#181818;stroke-width:0.5;"/><path d="M538,423.7715 L538,433.7715 L548,433.7715 L538,423.7715 " fill="#FEFFDD" style="stroke:#181818;stroke-width:0.5;"/><text fill="#000000" font-family="sans-serif" font-size="13" lengthAdjust="spacing" textLength="121.5767" x="367" y="441.3398">Flight offers search</text><text fill="#000000" font-family="sans-serif" font-size="13" lengthAdjust="spacing" textLength="166.1753" x="367" y="456.6504">Lists available flight offers</text><path d="M294.3408,476.3926 L361.5259,476.3926 L361.5259,483.7031 L351.5259,493.7031 L294.3408,493.7031 L294.3408,476.3926 " fill="#EEEEEE" style="stroke:#000000;stroke-width:1.5;"/><rect fill="#FFFFFF" fill-opacity="0.00000" height="75.9316" style="stroke:#000000;stroke-width:1.5;" width="334.6768" x="294.3408" y="476.3926"/><text fill="#000000" font-family="sans-serif" font-size="13" font-weight="bold" lengthAdjust="spacing" textLength="22.1851" x="309.3408" y="489.9609">opt</text><text fill="#000000" font-family="sans-serif" font-size="11" font-weight="bold" lengthAdjust="spacing" textLength="121.5693" x="376.5259" y="489.0273">[If no offers in cache]</text><g><polygon fill="#181818" points="588.6084,511.0137,598.6084,515.0137,588.6084,519.0137,592.6084,515.0137" style="stroke:#181818;stroke-width:1;"/><line style="stroke:#181818;stroke-width:1;" x1="356.147" x2="594.6084" y1="515.0137" y2="515.0137"/><text fill="#000000" font-family="sans-serif" font-size="13" font-weight="bold" lengthAdjust="spacing" textLength="8.5757" x="363.147" y="510.2715">6</text><text fill="#000000" font-family="sans-serif" font-size="13" lengthAdjust="spacing" textLength="128.7368" x="375.7227" y="510.2715">Request flight offers</text></g><g><polygon fill="#181818" points="367.147,540.3242,357.147,544.3242,367.147,548.3242,363.147,544.3242" style="stroke:#181818;stroke-width:1;"/><line style="stroke:#181818;stroke-width:1;" x1="361.147" x2="599.6084" y1="544.3242" y2="544.3242"/><text fill="#000000" font-family="sans-serif" font-size="13" font-weight="bold" lengthAdjust="spacing" textLength="8.5757" x="373.147" y="539.582">7</text><text fill="#000000" font-family="sans-serif" font-size="13" lengthAdjust="spacing" textLength="76.3687" x="385.7227" y="539.582">Flight offers</text></g><g><polygon fill="#181818" points="65.4741,576.6348,55.4741,580.6348,65.4741,584.6348,61.4741,580.6348" style="stroke:#181818;stroke-width:1;"/><line style="stroke:#181818;stroke-width:1;" x1="59.4741" x2="355.147" y1="580.6348" y2="580.6348"/><text fill="#000000" font-family="sans-serif" font-size="13" font-weight="bold" lengthAdjust="spacing" textLength="8.5757" x="71.4741" y="575.8926">8</text><text fill="#000000" font-family="sans-serif" font-size="13" lengthAdjust="spacing" textLength="117.3491" x="84.0498" y="575.8926">List of flight offers</text></g><rect fill="#EEEEEE" height="3" style="stroke:#EEEEEE;stroke-width:1;" width="695.8696" x="0" y="609.29"/><line style="stroke:#000000;stroke-width:1;" x1="0" x2="695.8696" y1="609.29" y2="609.29"/><line style="stroke:#000000;stroke-width:1;" x1="0" x2="695.8696" y1="612.29" y2="612.29"/><rect fill="#EEEEEE" height="23.3105" style="stroke:#000000;stroke-width:2;" width="170.4888" x="262.6904" y="598.6348"/><text fill="#000000" font-family="sans-serif" font-size="13" font-weight="bold" lengthAdjust="spacing" textLength="152.2041" x="268.6904" y="615.2031">Use case: Create Order</text><g><polygon fill="#181818" points="344.147,659.9111,354.147,663.9111,344.147,667.9111,348.147,663.9111" style="stroke:#181818;stroke-width:1;"/><line style="stroke:#181818;stroke-width:1;" x1="54.4741" x2="350.147" y1="663.9111" y2="663.9111"/><text fill="#000000" font-family="sans-serif" font-size="13" font-weight="bold" lengthAdjust="spacing" textLength="8.5757" x="61.4741" y="659.1689">9</text><text fill="#000000" font-family="sans-serif" font-size="13" lengthAdjust="spacing" textLength="144.1489" x="74.0498" y="659.1689">mutation: Create order</text></g><path d="M361,636.9453 L361,676.9453 L573,676.9453 L573,646.9453 L563,636.9453 L361,636.9453 " fill="#FEFFDD" style="stroke:#181818;stroke-width:0.5;"/><path d="M563,636.9453 L563,646.9453 L573,646.9453 L563,636.9453 " fill="#FEFFDD" style="stroke:#181818;stroke-width:0.5;"/><text fill="#000000" font-family="sans-serif" font-size="13" lengthAdjust="spacing" textLength="191.3501" x="367" y="654.5137">Create order for selected offer</text><text fill="#000000" font-family="sans-serif" font-size="13" lengthAdjust="spacing" textLength="114.1753" x="367" y="669.8242">Order information</text><g><polygon fill="#181818" points="588.6084,699.877,598.6084,703.877,588.6084,707.877,592.6084,703.877" style="stroke:#181818;stroke-width:1;"/><line style="stroke:#181818;stroke-width:1;" x1="356.147" x2="594.6084" y1="703.877" y2="703.877"/><text fill="#000000" font-family="sans-serif" font-size="13" font-weight="bold" lengthAdjust="spacing" textLength="17.1514" x="363.147" y="699.1348">10</text><text fill="#000000" font-family="sans-serif" font-size="13" lengthAdjust="spacing" textLength="79.0029" x="384.2983" y="699.1348">Create order</text></g><g><polygon fill="#181818" points="367.147,729.1875,357.147,733.1875,367.147,737.1875,363.147,733.1875" style="stroke:#181818;stroke-width:1;"/><line style="stroke:#181818;stroke-width:1;" x1="361.147" x2="599.6084" y1="733.1875" y2="733.1875"/><text fill="#000000" font-family="sans-serif" font-size="13" font-weight="bold" lengthAdjust="spacing" textLength="17.1514" x="373.147" y="728.4453">11</text><text fill="#000000" font-family="sans-serif" font-size="13" lengthAdjust="spacing" textLength="114.1753" x="394.2983" y="728.4453">Order information</text></g><g><polygon fill="#181818" points="65.4741,758.498,55.4741,762.498,65.4741,766.498,61.4741,762.498" style="stroke:#181818;stroke-width:1;"/><line style="stroke:#181818;stroke-width:1;" x1="59.4741" x2="355.147" y1="762.498" y2="762.498"/><text fill="#000000" font-family="sans-serif" font-size="13" font-weight="bold" lengthAdjust="spacing" textLength="17.1514" x="71.4741" y="757.7559">12</text><text fill="#000000" font-family="sans-serif" font-size="13" lengthAdjust="spacing" textLength="114.1753" x="92.6255" y="757.7559">Order information</text></g><rect fill="#EEEEEE" height="3" style="stroke:#EEEEEE;stroke-width:1;" width="695.8696" x="0" y="791.1533"/><line style="stroke:#000000;stroke-width:1;" x1="0" x2="695.8696" y1="791.1533" y2="791.1533"/><line style="stroke:#000000;stroke-width:1;" x1="0" x2="695.8696" y1="794.1533" y2="794.1533"/><rect fill="#EEEEEE" height="23.3105" style="stroke:#000000;stroke-width:2;" width="288.1997" x="203.835" y="780.498"/><text fill="#000000" font-family="sans-serif" font-size="13" font-weight="bold" lengthAdjust="spacing" textLength="269.915" x="209.835" y="797.0664">Use case: Update passenger information</text><g><polygon fill="#181818" points="344.147,841.7744,354.147,845.7744,344.147,849.7744,348.147,845.7744" style="stroke:#181818;stroke-width:1;"/><line style="stroke:#181818;stroke-width:1;" x1="54.4741" x2="350.147" y1="845.7744" y2="845.7744"/><text fill="#000000" font-family="sans-serif" font-size="13" font-weight="bold" lengthAdjust="spacing" textLength="17.1514" x="61.4741" y="841.0322">13</text><text fill="#000000" font-family="sans-serif" font-size="13" lengthAdjust="spacing" textLength="256.5215" x="82.6255" y="841.0322">mutation: Update passenger information</text></g><path d="M361,818.8086 L361,858.8086 L685,858.8086 L685,828.8086 L675,818.8086 L361,818.8086 " fill="#FEFFDD" style="stroke:#181818;stroke-width:0.5;"/><path d="M675,818.8086 L675,828.8086 L685,828.8086 L675,818.8086 " fill="#FEFFDD" style="stroke:#181818;stroke-width:0.5;"/><text fill="#000000" font-family="sans-serif" font-size="13" lengthAdjust="spacing" textLength="303.7227" x="367" y="836.377">Update passenger information for selected offer</text><text fill="#000000" font-family="sans-serif" font-size="13" lengthAdjust="spacing" textLength="114.1753" x="367" y="851.6875">Order information</text><g><polygon fill="#181818" points="588.6084,881.7402,598.6084,885.7402,588.6084,889.7402,592.6084,885.7402" style="stroke:#181818;stroke-width:1;"/><line style="stroke:#181818;stroke-width:1;" x1="356.147" x2="594.6084" y1="885.7402" y2="885.7402"/><text fill="#000000" font-family="sans-serif" font-size="13" font-weight="bold" lengthAdjust="spacing" textLength="17.1514" x="363.147" y="880.998">14</text><text fill="#000000" font-family="sans-serif" font-size="13" lengthAdjust="spacing" textLength="191.3755" x="384.2983" y="880.998">Update passenger information</text></g><g><polygon fill="#181818" points="367.147,911.0508,357.147,915.0508,367.147,919.0508,363.147,915.0508" style="stroke:#181818;stroke-width:1;"/><line style="stroke:#181818;stroke-width:1;" x1="361.147" x2="599.6084" y1="915.0508" y2="915.0508"/><text fill="#000000" font-family="sans-serif" font-size="13" font-weight="bold" lengthAdjust="spacing" textLength="17.1514" x="373.147" y="910.3086">15</text><text fill="#000000" font-family="sans-serif" font-size="13" lengthAdjust="spacing" textLength="169.0127" x="394.2983" y="910.3086">Updated order information</text></g><g><polygon fill="#181818" points="65.4741,940.3613,55.4741,944.3613,65.4741,948.3613,61.4741,944.3613" style="stroke:#181818;stroke-width:1;"/><line style="stroke:#181818;stroke-width:1;" x1="59.4741" x2="355.147" y1="944.3613" y2="944.3613"/><text fill="#000000" font-family="sans-serif" font-size="13" font-weight="bold" lengthAdjust="spacing" textLength="17.1514" x="71.4741" y="939.6191">16</text><text fill="#000000" font-family="sans-serif" font-size="13" lengthAdjust="spacing" textLength="169.0127" x="92.6255" y="939.6191">Updated order information</text></g><rect fill="#EEEEEE" height="3" style="stroke:#EEEEEE;stroke-width:1;" width="695.8696" x="0" y="973.0166"/><line style="stroke:#000000;stroke-width:1;" x1="0" x2="695.8696" y1="973.0166" y2="973.0166"/><line style="stroke:#000000;stroke-width:1;" x1="0" x2="695.8696" y1="976.0166" y2="976.0166"/><rect fill="#EEEEEE" height="23.3105" style="stroke:#000000;stroke-width:2;" width="226.5449" x="234.6624" y="962.3613"/><text fill="#000000" font-family="sans-serif" font-size="13" font-weight="bold" lengthAdjust="spacing" textLength="208.2603" x="240.6624" y="978.9297">Use case: Service Offers Search</text><g><polygon fill="#181818" points="344.147,1023.6377,354.147,1027.6377,344.147,1031.6377,348.147,1027.6377" style="stroke:#181818;stroke-width:1;"/><line style="stroke:#181818;stroke-width:1;" x1="54.4741" x2="350.147" y1="1027.6377" y2="1027.6377"/><text fill="#000000" font-family="sans-serif" font-size="13" font-weight="bold" lengthAdjust="spacing" textLength="17.1514" x="61.4741" y="1022.8955">17</text><text fill="#000000" font-family="sans-serif" font-size="13" lengthAdjust="spacing" textLength="197.6406" x="82.6255" y="1022.8955">mutation: Service Offers Search</text></g><path d="M361,1000.6719 L361,1040.6719 L602,1040.6719 L602,1010.6719 L592,1000.6719 L361,1000.6719 " fill="#FEFFDD" style="stroke:#181818;stroke-width:0.5;"/><path d="M592,1000.6719 L592,1010.6719 L602,1010.6719 L592,1000.6719 " fill="#FEFFDD" style="stroke:#181818;stroke-width:0.5;"/><text fill="#000000" font-family="sans-serif" font-size="13" lengthAdjust="spacing" textLength="220.7588" x="367" y="1018.2402">Search service offers by flight offer</text><text fill="#000000" font-family="sans-serif" font-size="13" lengthAdjust="spacing" textLength="176.4204" x="367" y="1033.5508">Lists available service offers</text><path d="M294.3408,1053.293 L361.5259,1053.293 L361.5259,1060.6035 L351.5259,1070.6035 L294.3408,1070.6035 L294.3408,1053.293 " fill="#EEEEEE" style="stroke:#000000;stroke-width:1.5;"/><rect fill="#FFFFFF" fill-opacity="0.00000" height="75.9316" style="stroke:#000000;stroke-width:1.5;" width="334.6768" x="294.3408" y="1053.293"/><text fill="#000000" font-family="sans-serif" font-size="13" font-weight="bold" lengthAdjust="spacing" textLength="22.1851" x="309.3408" y="1066.8613">opt</text><text fill="#000000" font-family="sans-serif" font-size="11" font-weight="bold" lengthAdjust="spacing" textLength="121.5693" x="376.5259" y="1065.9277">[If no offers in cache]</text><g><polygon fill="#181818" points="588.6084,1087.9141,598.6084,1091.9141,588.6084,1095.9141,592.6084,1091.9141" style="stroke:#181818;stroke-width:1;"/><line style="stroke:#181818;stroke-width:1;" x1="356.147" x2="594.6084" y1="1091.9141" y2="1091.9141"/><text fill="#000000" font-family="sans-serif" font-size="13" font-weight="bold" lengthAdjust="spacing" textLength="17.1514" x="363.147" y="1087.1719">18</text><text fill="#000000" font-family="sans-serif" font-size="13" lengthAdjust="spacing" textLength="138.9819" x="384.2983" y="1087.1719">Request service offers</text></g><g><polygon fill="#181818" points="367.147,1117.2246,357.147,1121.2246,367.147,1125.2246,363.147,1121.2246" style="stroke:#181818;stroke-width:1;"/><line style="stroke:#181818;stroke-width:1;" x1="361.147" x2="599.6084" y1="1121.2246" y2="1121.2246"/><text fill="#000000" font-family="sans-serif" font-size="13" font-weight="bold" lengthAdjust="spacing" textLength="17.1514" x="373.147" y="1116.4824">19</text><text fill="#000000" font-family="sans-serif" font-size="13" lengthAdjust="spacing" textLength="84.7983" x="394.2983" y="1116.4824">Service offers</text></g><g><polygon fill="#181818" points="65.4741,1153.5352,55.4741,1157.5352,65.4741,1161.5352,61.4741,1157.5352" style="stroke:#181818;stroke-width:1;"/><line style="stroke:#181818;stroke-width:1;" x1="59.4741" x2="355.147" y1="1157.5352" y2="1157.5352"/><text fill="#000000" font-family="sans-serif" font-size="13" font-weight="bold" lengthAdjust="spacing" textLength="17.1514" x="71.4741" y="1152.793">20</text><text fill="#000000" font-family="sans-serif" font-size="13" lengthAdjust="spacing" textLength="127.5942" x="92.6255" y="1152.793">List of service offers</text></g><rect fill="#EEEEEE" height="3" style="stroke:#EEEEEE;stroke-width:1;" width="695.8696" x="0" y="1186.1904"/><line style="stroke:#000000;stroke-width:1;" x1="0" x2="695.8696" y1="1186.1904" y2="1186.1904"/><line style="stroke:#000000;stroke-width:1;" x1="0" x2="695.8696" y1="1189.1904" y2="1189.1904"/><rect fill="#EEEEEE" height="23.3105" style="stroke:#000000;stroke-width:2;" width="188.5669" x="253.6514" y="1175.5352"/><text fill="#000000" font-family="sans-serif" font-size="13" font-weight="bold" lengthAdjust="spacing" textLength="170.2822" x="259.6514" y="1192.1035">Use case: Reserve service</text><g><polygon fill="#181818" points="344.147,1236.8115,354.147,1240.8115,344.147,1244.8115,348.147,1240.8115" style="stroke:#181818;stroke-width:1;"/><line style="stroke:#181818;stroke-width:1;" x1="54.4741" x2="350.147" y1="1240.8115" y2="1240.8115"/><text fill="#000000" font-family="sans-serif" font-size="13" font-weight="bold" lengthAdjust="spacing" textLength="17.1514" x="61.4741" y="1236.0693">21</text><text fill="#000000" font-family="sans-serif" font-size="13" lengthAdjust="spacing" textLength="161.459" x="82.6255" y="1236.0693">mutation: Reserve service</text></g><path d="M361,1213.8457 L361,1253.8457 L496,1253.8457 L496,1223.8457 L486,1213.8457 L361,1213.8457 " fill="#FEFFDD" style="stroke:#181818;stroke-width:0.5;"/><path d="M486,1213.8457 L486,1223.8457 L496,1223.8457 L486,1213.8457 " fill="#FEFFDD" style="stroke:#181818;stroke-width:0.5;"/><text fill="#000000" font-family="sans-serif" font-size="13" lengthAdjust="spacing" textLength="96.313" x="367" y="1231.4141">Reserve service</text><text fill="#000000" font-family="sans-serif" font-size="13" lengthAdjust="spacing" textLength="114.1753" x="367" y="1246.7246">Order information</text><g><polygon fill="#181818" points="588.6084,1276.7773,598.6084,1280.7773,588.6084,1284.7773,592.6084,1280.7773" style="stroke:#181818;stroke-width:1;"/><line style="stroke:#181818;stroke-width:1;" x1="356.147" x2="594.6084" y1="1280.7773" y2="1280.7773"/><text fill="#000000" font-family="sans-serif" font-size="13" font-weight="bold" lengthAdjust="spacing" textLength="17.1514" x="363.147" y="1276.0352">22</text><text fill="#000000" font-family="sans-serif" font-size="13" lengthAdjust="spacing" textLength="96.313" x="384.2983" y="1276.0352">Reserve service</text></g><g><polygon fill="#181818" points="367.147,1306.0879,357.147,1310.0879,367.147,1314.0879,363.147,1310.0879" style="stroke:#181818;stroke-width:1;"/><line style="stroke:#181818;stroke-width:1;" x1="361.147" x2="599.6084" y1="1310.0879" y2="1310.0879"/><text fill="#000000" font-family="sans-serif" font-size="13" font-weight="bold" lengthAdjust="spacing" textLength="17.1514" x="373.147" y="1305.3457">23</text><text fill="#000000" font-family="sans-serif" font-size="13" lengthAdjust="spacing" textLength="199.3101" x="394.2983" y="1305.3457">Order information with services</text></g><g><polygon fill="#181818" points="65.4741,1335.3984,55.4741,1339.3984,65.4741,1343.3984,61.4741,1339.3984" style="stroke:#181818;stroke-width:1;"/><line style="stroke:#181818;stroke-width:1;" x1="59.4741" x2="355.147" y1="1339.3984" y2="1339.3984"/><text fill="#000000" font-family="sans-serif" font-size="13" font-weight="bold" lengthAdjust="spacing" textLength="17.1514" x="71.4741" y="1334.6563">24</text><text fill="#000000" font-family="sans-serif" font-size="13" lengthAdjust="spacing" textLength="199.3101" x="92.6255" y="1334.6563">Order information with services</text></g><rect fill="#EEEEEE" height="3" style="stroke:#EEEEEE;stroke-width:1;" width="695.8696" x="0" y="1368.0537"/><line style="stroke:#000000;stroke-width:1;" x1="0" x2="695.8696" y1="1368.0537" y2="1368.0537"/><line style="stroke:#000000;stroke-width:1;" x1="0" x2="695.8696" y1="1371.0537" y2="1371.0537"/><rect fill="#EEEEEE" height="23.3105" style="stroke:#000000;stroke-width:2;" width="239.8813" x="227.9941" y="1357.3984"/><text fill="#000000" font-family="sans-serif" font-size="13" font-weight="bold" lengthAdjust="spacing" textLength="221.5967" x="233.9941" y="1373.9668">Use case: Seat Availability Search</text><g><polygon fill="#181818" points="344.147,1418.6748,354.147,1422.6748,344.147,1426.6748,348.147,1422.6748" style="stroke:#181818;stroke-width:1;"/><line style="stroke:#181818;stroke-width:1;" x1="54.4741" x2="350.147" y1="1422.6748" y2="1422.6748"/><text fill="#000000" font-family="sans-serif" font-size="13" font-weight="bold" lengthAdjust="spacing" textLength="17.1514" x="61.4741" y="1417.9326">25</text><text fill="#000000" font-family="sans-serif" font-size="13" lengthAdjust="spacing" textLength="209.8091" x="82.6255" y="1417.9326">mutation: Seat Availability Search</text></g><path d="M361,1395.709 L361,1435.709 L648,1435.709 L648,1405.709 L638,1395.709 L361,1395.709 " fill="#FEFFDD" style="stroke:#181818;stroke-width:0.5;"/><path d="M638,1395.709 L638,1405.709 L648,1405.709 L638,1395.709 " fill="#FEFFDD" style="stroke:#181818;stroke-width:0.5;"/><text fill="#000000" font-family="sans-serif" font-size="13" lengthAdjust="spacing" textLength="266.0684" x="367" y="1413.2773">Search seat-map structure and seat offers</text><text fill="#000000" font-family="sans-serif" font-size="13" lengthAdjust="spacing" textLength="159.7197" x="367" y="1428.5879">Seat-map and seat offers</text><path d="M294.3408,1448.3301 L361.5259,1448.3301 L361.5259,1455.6406 L351.5259,1465.6406 L294.3408,1465.6406 L294.3408,1448.3301 " fill="#EEEEEE" style="stroke:#000000;stroke-width:1.5;"/><rect fill="#FFFFFF" fill-opacity="0.00000" height="75.9316" style="stroke:#000000;stroke-width:1.5;" width="334.6768" x="294.3408" y="1448.3301"/><text fill="#000000" font-family="sans-serif" font-size="13" font-weight="bold" lengthAdjust="spacing" textLength="22.1851" x="309.3408" y="1461.8984">opt</text><text fill="#000000" font-family="sans-serif" font-size="11" font-weight="bold" lengthAdjust="spacing" textLength="121.5693" x="376.5259" y="1460.9648">[If no offers in cache]</text><g><polygon fill="#181818" points="588.6084,1482.9512,598.6084,1486.9512,588.6084,1490.9512,592.6084,1486.9512" style="stroke:#181818;stroke-width:1;"/><line style="stroke:#181818;stroke-width:1;" x1="356.147" x2="594.6084" y1="1486.9512" y2="1486.9512"/><text fill="#000000" font-family="sans-serif" font-size="13" font-weight="bold" lengthAdjust="spacing" textLength="17.1514" x="363.147" y="1482.209">26</text><text fill="#000000" font-family="sans-serif" font-size="13" lengthAdjust="spacing" textLength="121.3164" x="384.2983" y="1482.209">Request seat offers</text></g><g><polygon fill="#181818" points="367.147,1512.2617,357.147,1516.2617,367.147,1520.2617,363.147,1516.2617" style="stroke:#181818;stroke-width:1;"/><line style="stroke:#181818;stroke-width:1;" x1="361.147" x2="599.6084" y1="1516.2617" y2="1516.2617"/><text fill="#000000" font-family="sans-serif" font-size="13" font-weight="bold" lengthAdjust="spacing" textLength="17.1514" x="373.147" y="1511.5195">27</text><text fill="#000000" font-family="sans-serif" font-size="13" lengthAdjust="spacing" textLength="67.1328" x="394.2983" y="1511.5195">Seat offers</text></g><g><polygon fill="#181818" points="65.4741,1548.5723,55.4741,1552.5723,65.4741,1556.5723,61.4741,1552.5723" style="stroke:#181818;stroke-width:1;"/><line style="stroke:#181818;stroke-width:1;" x1="59.4741" x2="355.147" y1="1552.5723" y2="1552.5723"/><text fill="#000000" font-family="sans-serif" font-size="13" font-weight="bold" lengthAdjust="spacing" textLength="17.1514" x="71.4741" y="1547.8301">28</text><text fill="#000000" font-family="sans-serif" font-size="13" lengthAdjust="spacing" textLength="109.9287" x="92.6255" y="1547.8301">List of seat offers</text></g><rect fill="#EEEEEE" height="3" style="stroke:#EEEEEE;stroke-width:1;" width="695.8696" x="0" y="1581.2275"/><line style="stroke:#000000;stroke-width:1;" x1="0" x2="695.8696" y1="1581.2275" y2="1581.2275"/><line style="stroke:#000000;stroke-width:1;" x1="0" x2="695.8696" y1="1584.2275" y2="1584.2275"/><rect fill="#EEEEEE" height="23.3105" style="stroke:#000000;stroke-width:2;" width="253.5732" x="221.1482" y="1570.5723"/><text fill="#000000" font-family="sans-serif" font-size="13" font-weight="bold" lengthAdjust="spacing" textLength="235.2886" x="227.1482" y="1587.1406">Use case: Reserve and Release Seat</text><g><polygon fill="#181818" points="344.147,1631.8486,354.147,1635.8486,344.147,1639.8486,348.147,1635.8486" style="stroke:#181818;stroke-width:1;"/><line style="stroke:#181818;stroke-width:1;" x1="54.4741" x2="350.147" y1="1635.8486" y2="1635.8486"/><text fill="#000000" font-family="sans-serif" font-size="13" font-weight="bold" lengthAdjust="spacing" textLength="17.1514" x="61.4741" y="1631.1064">29</text><text fill="#000000" font-family="sans-serif" font-size="13" lengthAdjust="spacing" textLength="195.2222" x="82.6255" y="1631.1064">mutation: Reserve/release seat</text></g><path d="M361,1608.8828 L361,1648.8828 L512,1648.8828 L512,1618.8828 L502,1608.8828 L361,1608.8828 " fill="#FEFFDD" style="stroke:#181818;stroke-width:0.5;"/><path d="M502,1608.8828 L502,1618.8828 L512,1618.8828 L502,1608.8828 " fill="#FEFFDD" style="stroke:#181818;stroke-width:0.5;"/><text fill="#000000" font-family="sans-serif" font-size="13" lengthAdjust="spacing" textLength="130.0762" x="367" y="1626.4512">Reserve/release seat</text><text fill="#000000" font-family="sans-serif" font-size="13" lengthAdjust="spacing" textLength="97.3032" x="367" y="1641.7617">Order structure</text><g><polygon fill="#181818" points="588.6084,1671.8145,598.6084,1675.8145,588.6084,1679.8145,592.6084,1675.8145" style="stroke:#181818;stroke-width:1;"/><line style="stroke:#181818;stroke-width:1;" x1="356.147" x2="594.6084" y1="1675.8145" y2="1675.8145"/><text fill="#000000" font-family="sans-serif" font-size="13" font-weight="bold" lengthAdjust="spacing" textLength="17.1514" x="363.147" y="1671.0723">30</text><text fill="#000000" font-family="sans-serif" font-size="13" lengthAdjust="spacing" textLength="130.0762" x="384.2983" y="1671.0723">Reserve/release seat</text></g><g><polygon fill="#181818" points="367.147,1701.125,357.147,1705.125,367.147,1709.125,363.147,1705.125" style="stroke:#181818;stroke-width:1;"/><line style="stroke:#181818;stroke-width:1;" x1="361.147" x2="599.6084" y1="1705.125" y2="1705.125"/><text fill="#000000" font-family="sans-serif" font-size="13" font-weight="bold" lengthAdjust="spacing" textLength="17.1514" x="373.147" y="1700.3828">31</text><text fill="#000000" font-family="sans-serif" font-size="13" lengthAdjust="spacing" textLength="97.3032" x="394.2983" y="1700.3828">Order structure</text></g><g><polygon fill="#181818" points="65.4741,1730.4355,55.4741,1734.4355,65.4741,1738.4355,61.4741,1734.4355" style="stroke:#181818;stroke-width:1;"/><line style="stroke:#181818;stroke-width:1;" x1="59.4741" x2="355.147" y1="1734.4355" y2="1734.4355"/><text fill="#000000" font-family="sans-serif" font-size="13" font-weight="bold" lengthAdjust="spacing" textLength="17.1514" x="71.4741" y="1729.6934">32</text><text fill="#000000" font-family="sans-serif" font-size="13" lengthAdjust="spacing" textLength="97.3032" x="92.6255" y="1729.6934">Order structure</text></g><rect fill="#EEEEEE" height="3" style="stroke:#EEEEEE;stroke-width:1;" width="695.8696" x="0" y="1763.0908"/><line style="stroke:#000000;stroke-width:1;" x1="0" x2="695.8696" y1="1763.0908" y2="1763.0908"/><line style="stroke:#000000;stroke-width:1;" x1="0" x2="695.8696" y1="1766.0908" y2="1766.0908"/><rect fill="#EEEEEE" height="23.3105" style="stroke:#000000;stroke-width:2;" width="223.752" x="236.0588" y="1752.4355"/><text fill="#000000" font-family="sans-serif" font-size="13" font-weight="bold" lengthAdjust="spacing" textLength="205.4673" x="242.0588" y="1769.0039">Use case: Get payment options</text><g><polygon fill="#181818" points="344.147,1813.7119,354.147,1817.7119,344.147,1821.7119,348.147,1817.7119" style="stroke:#181818;stroke-width:1;"/><line style="stroke:#181818;stroke-width:1;" x1="54.4741" x2="350.147" y1="1817.7119" y2="1817.7119"/><text fill="#000000" font-family="sans-serif" font-size="13" font-weight="bold" lengthAdjust="spacing" textLength="17.1514" x="61.4741" y="1812.9697">33</text><text fill="#000000" font-family="sans-serif" font-size="13" lengthAdjust="spacing" textLength="196.8027" x="82.6255" y="1812.9697">mutation: Get payment options</text></g><path d="M361,1790.7461 L361,1830.7461 L513,1830.7461 L513,1800.7461 L503,1790.7461 L361,1790.7461 " fill="#FEFFDD" style="stroke:#181818;stroke-width:0.5;"/><path d="M503,1790.7461 L503,1800.7461 L513,1800.7461 L503,1790.7461 " fill="#FEFFDD" style="stroke:#181818;stroke-width:0.5;"/><text fill="#000000" font-family="sans-serif" font-size="13" lengthAdjust="spacing" textLength="131.6567" x="367" y="1808.3145">Get payment options</text><text fill="#000000" font-family="sans-serif" font-size="13" lengthAdjust="spacing" textLength="128.1655" x="367" y="1823.625">Payment options list</text><g><polygon fill="#181818" points="65.4741,1853.6777,55.4741,1857.6777,65.4741,1861.6777,61.4741,1857.6777" style="stroke:#181818;stroke-width:1;"/><line style="stroke:#181818;stroke-width:1;" x1="59.4741" x2="355.147" y1="1857.6777" y2="1857.6777"/><text fill="#000000" font-family="sans-serif" font-size="13" font-weight="bold" lengthAdjust="spacing" textLength="17.1514" x="71.4741" y="1852.9355">34</text><text fill="#000000" font-family="sans-serif" font-size="13" lengthAdjust="spacing" textLength="105.0474" x="92.6255" y="1852.9355">Payment options</text></g><rect fill="#EEEEEE" height="3" style="stroke:#EEEEEE;stroke-width:1;" width="695.8696" x="0" y="1886.333"/><line style="stroke:#000000;stroke-width:1;" x1="0" x2="695.8696" y1="1886.333" y2="1886.333"/><line style="stroke:#000000;stroke-width:1;" x1="0" x2="695.8696" y1="1889.333" y2="1889.333"/><rect fill="#EEEEEE" height="23.3105" style="stroke:#000000;stroke-width:2;" width="200.5195" x="247.675" y="1875.6777"/><text fill="#000000" font-family="sans-serif" font-size="13" font-weight="bold" lengthAdjust="spacing" textLength="182.2349" x="253.675" y="1892.2461">Use case: Confirm payment</text><g><polygon fill="#181818" points="344.147,1936.9541,354.147,1940.9541,344.147,1944.9541,348.147,1940.9541" style="stroke:#181818;stroke-width:1;"/><line style="stroke:#181818;stroke-width:1;" x1="54.4741" x2="350.147" y1="1940.9541" y2="1940.9541"/><text fill="#000000" font-family="sans-serif" font-size="13" font-weight="bold" lengthAdjust="spacing" textLength="17.1514" x="61.4741" y="1936.2119">35</text><text fill="#000000" font-family="sans-serif" font-size="13" lengthAdjust="spacing" textLength="174.7637" x="82.6255" y="1936.2119">mutation: Confirm payment</text></g><path d="M361,1913.9883 L361,1953.9883 L600,1953.9883 L600,1923.9883 L590,1913.9883 L361,1913.9883 " fill="#FEFFDD" style="stroke:#181818;stroke-width:0.5;"/><path d="M590,1913.9883 L590,1923.9883 L600,1923.9883 L590,1913.9883 " fill="#FEFFDD" style="stroke:#181818;stroke-width:0.5;"/><text fill="#000000" font-family="sans-serif" font-size="13" lengthAdjust="spacing" textLength="218.937" x="367" y="1931.5566">Confirm payment for selected type</text><text fill="#000000" font-family="sans-serif" font-size="13" lengthAdjust="spacing" textLength="142.4795" x="367" y="1946.8672">Paid order information</text><g><polygon fill="#181818" points="65.4741,1976.9199,55.4741,1980.9199,65.4741,1984.9199,61.4741,1980.9199" style="stroke:#181818;stroke-width:1;"/><line style="stroke:#181818;stroke-width:1;" x1="59.4741" x2="355.147" y1="1980.9199" y2="1980.9199"/><text fill="#000000" font-family="sans-serif" font-size="13" font-weight="bold" lengthAdjust="spacing" textLength="17.1514" x="71.4741" y="1976.1777">36</text><text fill="#000000" font-family="sans-serif" font-size="13" lengthAdjust="spacing" textLength="142.4795" x="92.6255" y="1976.1777">Paid order information</text></g><!--SRC=[fLR1Rk8m4BtxAqRj6Usn4XALLjrjjL8bAg9-m10cO6qIP-r9AN-_On8WDYQmNKx0p7ipxyqu3kPiBDpzh5UGjuvDHVOEq1r_ABKqd_0oVu3xKgytl2nRKY2V1YthN3TOCzojpSDaZKnRtEtH_NT5GYluZkGjo-2-qVLl5Q4bi4SrpfqGsBAfsshfMs3D9S6yACZ2awcPFXcAqcoLcitWtH7aw6WAprh0tpzGbxYK_8LfcHpCPkeWPlBODpQ5FotPtGM8gWqJM2zNPHkp1Tx8puxDDAnDxTGFyX9QIu2UmLhzWIMWjesntCdmBAelE7ayz325L-qOJ05uBDjnHsgUi1GMj8VsTAbvDwuc2HcgUHKn1LfVei_4OQQ4INfhhCu96Z6xsCySLbBd9aafMdscxBbZtS_JGKPeyyq5OLNBw0rFWuRI-hZfugwB-xxSmEXYc7HI94E5NuLyFy1rBQtccu5MsStfWiHdnn6BH4uDFyS5njmAUQBfMn8WpErAnd3DcpxP-EIX9yF_eP1pxgYad6dLrLGTkwubLEsf4aFsmWF-G2-SKoG4doU5OjyRls7oK72EwdMOUbNy67XencYH_p1dj7veLfUwwWTonRJBoQ5v6TaFVrx_xJWbKS63h-DnVLv_C9QxO6lF3bYO_kKJ5j44BcPd9SREMCGKMhSW7pvrVSsqA7zeLnowTNjYN23rZ0IsceypSJSTjGWIxmvoUB_Sl3vfO7A3a2SLDk3OjldnolH_7wQI7LBYmDVt1_d2yY3Vl3d8uslZkrt8GqF-x0ovSN- -sHxaIoIMA8nt4psQDxv78JInJ2UUYyjpIWbblv2y6k2k8dbdwr-3hYfEO8Q2K-6tg4GfynXz-OW0yKLgwaBRwbZcwbqQvWVNQKGLN1gyQqXwrwa7zdZtIOXIVm40]--></g></svg>