<svg xmlns="http://www.w3.org/2000/svg" xmlns:xlink="http://www.w3.org/1999/xlink" contentStyleType="text/css" data-diagram-type="SEQUENCE" height="1767px" preserveAspectRatio="none" style="width:1115px;height:1767px;background:#FFFFFF;" version="1.1" viewBox="0 0 1115 1767" width="1115px" zoomAndPan="magnify"><title>Offer Context flow</title><defs/><g><text fill="#000000" font-family="sans-serif" font-size="14" font-weight="bold" lengthAdjust="spacing" textLength="134.2373" x="486.6438" y="28.5352">Offer Context flow</text><rect fill="#ADD8E6" height="1717.8145" style="stroke:#181818;stroke-width:0.5;" width="792.0781" x="253.6284" y="43.4883"/><text fill="#000000" font-family="sans-serif" font-size="13" font-weight="bold" lengthAdjust="spacing" textLength="28.9707" x="633.0398" y="56.0566">GO7</text><rect fill="#FFC0CB" height="1717.8145" style="stroke:#181818;stroke-width:0.5;" width="44.8184" x="1047.7065" y="43.4883"/><text fill="#000000" font-family="sans-serif" font-size="13" font-weight="bold" lengthAdjust="spacing" textLength="22.8262" x="1056.5603" y="56.0566">PSS</text><rect fill="#FFFFFF" fill-opacity="0.00000" height="75.9316" style="stroke:#000000;stroke-width:1.5;" width="477.2607" x="621.2642" y="622.9453"/><rect fill="#FFFFFF" fill-opacity="0.00000" height="75.9316" style="stroke:#000000;stroke-width:1.5;" width="477.2607" x="621.2642" y="1076.6035"/><rect fill="#FFFFFF" fill-opacity="0.00000" height="75.9316" style="stroke:#000000;stroke-width:1.5;" width="477.2607" x="621.2642" y="1348.3984"/><g><title>End customer</title><rect fill="#FFFFFF" fill-opacity="0.00000" height="1562.8379" width="8" x="50.4741" y="118.9766"/><line style="stroke:#181818;stroke-width:0.5;stroke-dasharray:5.0,5.0;" x1="54" x2="54" y1="118.9766" y2="1681.8145"/></g><g><title>go7-gateway</title><rect fill="#FFFFFF" fill-opacity="0.00000" height="1562.8379" width="8" x="305.4346" y="118.9766"/><line style="stroke:#181818;stroke-width:0.5;stroke-dasharray:5.0,5.0;" x1="308.6284" x2="308.6284" y1="118.9766" y2="1681.8145"/></g><g><title>search-service</title><rect fill="#FFFFFF" fill-opacity="0.00000" height="1562.8379" width="8" x="423.8833" y="118.9766"/><line style="stroke:#181818;stroke-width:0.5;stroke-dasharray:5.0,5.0;" x1="427.2407" x2="427.2407" y1="118.9766" y2="1681.8145"/></g><g><title>calendar-service</title><rect fill="#FFFFFF" fill-opacity="0.00000" height="1562.8379" width="8" x="553.895" y="118.9766"/><line style="stroke:#181818;stroke-width:0.5;stroke-dasharray:5.0,5.0;" x1="557.5259" x2="557.5259" y1="118.9766" y2="1681.8145"/></g><g><title>offer-management-service</title><rect fill="#FFFFFF" fill-opacity="0.00000" height="1562.8379" width="8" x="726.3135" y="118.9766"/><line style="stroke:#181818;stroke-width:0.5;stroke-dasharray:5.0,5.0;" x1="730.2642" x2="730.2642" y1="118.9766" y2="1681.8145"/></g><g><title>order-management-service</title><rect fill="#FFFFFF" fill-opacity="0.00000" height="1562.8379" width="8" x="936.5347" y="118.9766"/><line style="stroke:#181818;stroke-width:0.5;stroke-dasharray:5.0,5.0;" x1="940.3628" x2="940.3628" y1="118.9766" y2="1681.8145"/></g><g><title>PSS</title><rect fill="#FFFFFF" fill-opacity="0.00000" height="1562.8379" width="8" x="1066.1157" y="118.9766"/><line style="stroke:#181818;stroke-width:0.5;stroke-dasharray:5.0,5.0;" x1="1069.7065" x2="1069.7065" y1="118.9766" y2="1681.8145"/></g><g><text fill="#000000" font-family="sans-serif" font-size="14" lengthAdjust="spacing" textLength="92.9482" x="5" y="116.0234">End customer</text><ellipse cx="54.4741" cy="50.9883" fill="#E2E2F0" rx="8" ry="8" style="stroke:#181818;stroke-width:0.5;"/><path d="M54.4741,58.9883 L54.4741,85.9883 M41.4741,66.9883 L67.4741,66.9883 M54.4741,85.9883 L41.4741,100.9883 M54.4741,85.9883 L67.4741,100.9883 " fill="#FFFFFF" fill-opacity="0.00000" style="stroke:#181818;stroke-width:0.5;"/></g><g><text fill="#000000" font-family="sans-serif" font-size="14" lengthAdjust="spacing" textLength="92.9482" x="5" y="1694.3496">End customer</text><ellipse cx="54.4741" cy="1705.8027" fill="#E2E2F0" rx="8" ry="8" style="stroke:#181818;stroke-width:0.5;"/><path d="M54.4741,1713.8027 L54.4741,1740.8027 M41.4741,1721.8027 L67.4741,1721.8027 M54.4741,1740.8027 L41.4741,1755.8027 M54.4741,1740.8027 L67.4741,1755.8027 " fill="#FFFFFF" fill-opacity="0.00000" style="stroke:#181818;stroke-width:0.5;"/></g><g><rect fill="#E2E2F0" height="30.4883" rx="2.5" ry="2.5" style="stroke:#181818;stroke-width:0.5;" width="103.6123" x="257.6284" y="87.4883"/><text fill="#000000" font-family="sans-serif" font-size="14" lengthAdjust="spacing" textLength="89.6123" x="264.6284" y="108.0234">go7-gateway</text></g><g><rect fill="#E2E2F0" height="30.4883" rx="2.5" ry="2.5" style="stroke:#181818;stroke-width:0.5;" width="103.6123" x="257.6284" y="1680.8145"/><text fill="#000000" font-family="sans-serif" font-size="14" lengthAdjust="spacing" textLength="89.6123" x="264.6284" y="1701.3496">go7-gateway</text></g><g><rect fill="#E2E2F0" height="30.4883" rx="2.5" ry="2.5" style="stroke:#181818;stroke-width:0.5;" width="113.2852" x="371.2407" y="87.4883"/><text fill="#000000" font-family="sans-serif" font-size="14" lengthAdjust="spacing" textLength="99.2852" x="378.2407" y="108.0234">search-service</text></g><g><rect fill="#E2E2F0" height="30.4883" rx="2.5" ry="2.5" style="stroke:#181818;stroke-width:0.5;" width="113.2852" x="371.2407" y="1680.8145"/><text fill="#000000" font-family="sans-serif" font-size="14" lengthAdjust="spacing" textLength="99.2852" x="378.2407" y="1701.3496">search-service</text></g><g><rect fill="#E2E2F0" height="30.4883" rx="2.5" ry="2.5" style="stroke:#181818;stroke-width:0.5;" width="126.7383" x="494.5259" y="87.4883"/><text fill="#000000" font-family="sans-serif" font-size="14" lengthAdjust="spacing" textLength="112.7383" x="501.5259" y="108.0234">calendar-service</text></g><g><rect fill="#E2E2F0" height="30.4883" rx="2.5" ry="2.5" style="stroke:#181818;stroke-width:0.5;" width="126.7383" x="494.5259" y="1680.8145"/><text fill="#000000" font-family="sans-serif" font-size="14" lengthAdjust="spacing" textLength="112.7383" x="501.5259" y="1701.3496">calendar-service</text></g><g><rect fill="#E2E2F0" height="30.4883" rx="2.5" ry="2.5" style="stroke:#181818;stroke-width:0.5;" width="198.0986" x="631.2642" y="87.4883"/><text fill="#000000" font-family="sans-serif" font-size="14" lengthAdjust="spacing" textLength="184.0986" x="638.2642" y="108.0234">offer-management-service</text></g><g><rect fill="#E2E2F0" height="30.4883" rx="2.5" ry="2.5" style="stroke:#181818;stroke-width:0.5;" width="198.0986" x="631.2642" y="1680.8145"/><text fill="#000000" font-family="sans-serif" font-size="14" lengthAdjust="spacing" textLength="184.0986" x="638.2642" y="1701.3496">offer-management-service</text></g><g><rect fill="#E2E2F0" height="30.4883" rx="2.5" ry="2.5" style="stroke:#181818;stroke-width:0.5;" width="202.3438" x="839.3628" y="87.4883"/><text fill="#000000" font-family="sans-serif" font-size="14" lengthAdjust="spacing" textLength="188.3438" x="846.3628" y="108.0234">order-management-service</text></g><g><rect fill="#E2E2F0" height="30.4883" rx="2.5" ry="2.5" style="stroke:#181818;stroke-width:0.5;" width="202.3438" x="839.3628" y="1680.8145"/><text fill="#000000" font-family="sans-serif" font-size="14" lengthAdjust="spacing" textLength="188.3438" x="846.3628" y="1701.3496">order-management-service</text></g><g><rect fill="#E2E2F0" height="30.4883" rx="2.5" ry="2.5" style="stroke:#181818;stroke-width:0.5;" width="36.8184" x="1051.7065" y="87.4883"/><text fill="#000000" font-family="sans-serif" font-size="14" lengthAdjust="spacing" textLength="22.8184" x="1058.7065" y="108.0234">PSS</text></g><g><rect fill="#E2E2F0" height="30.4883" rx="2.5" ry="2.5" style="stroke:#181818;stroke-width:0.5;" width="36.8184" x="1051.7065" y="1680.8145"/><text fill="#000000" font-family="sans-serif" font-size="14" lengthAdjust="spacing" textLength="22.8184" x="1058.7065" y="1701.3496">PSS</text></g><rect fill="#EEEEEE" height="3" style="stroke:#EEEEEE;stroke-width:1;" width="1108.5249" x="0" y="149.6318"/><line style="stroke:#000000;stroke-width:1;" x1="0" x2="1108.5249" y1="149.6318" y2="149.6318"/><line style="stroke:#000000;stroke-width:1;" x1="0" x2="1108.5249" y1="152.6318" y2="152.6318"/><rect fill="#EEEEEE" height="23.3105" style="stroke:#000000;stroke-width:2;" width="229.0776" x="439.7236" y="138.9766"/><text fill="#000000" font-family="sans-serif" font-size="13" font-weight="bold" lengthAdjust="spacing" textLength="210.793" x="445.7236" y="155.5449">Use case: Find Available Routes</text><g><polygon fill="#181818" points="297.4346,200.2529,307.4346,204.2529,297.4346,208.2529,301.4346,204.2529" style="stroke:#181818;stroke-width:1;"/><line style="stroke:#181818;stroke-width:1;" x1="54.4741" x2="303.4346" y1="204.2529" y2="204.2529"/><text fill="#000000" font-family="sans-serif" font-size="13" font-weight="bold" lengthAdjust="spacing" textLength="8.5757" x="61.4741" y="199.5107">1</text><text fill="#000000" font-family="sans-serif" font-size="13" lengthAdjust="spacing" textLength="178.7944" x="74.0498" y="199.5107">query: Find Available Routes</text></g><path d="M314,177.2871 L314,217.2871 L524,217.2871 L524,187.2871 L514,177.2871 L314,177.2871 " fill="#FEFFDD" style="stroke:#181818;stroke-width:0.5;"/><path d="M514,177.2871 L514,187.2871 L524,187.2871 L514,177.2871 " fill="#FEFFDD" style="stroke:#181818;stroke-width:0.5;"/><text fill="#000000" font-family="sans-serif" font-size="13" lengthAdjust="spacing" textLength="153.1563" x="320" y="194.8555">Show the routes options</text><text fill="#000000" font-family="sans-serif" font-size="13" lengthAdjust="spacing" textLength="189.1855" x="320" y="210.166">Departure and Arrival airports</text><g><polygon fill="#181818" points="415.8833,240.2188,425.8833,244.2188,415.8833,248.2188,419.8833,244.2188" style="stroke:#181818;stroke-width:1;"/><line style="stroke:#181818;stroke-width:1;" x1="309.4346" x2="421.8833" y1="244.2188" y2="244.2188"/><text fill="#000000" font-family="sans-serif" font-size="13" font-weight="bold" lengthAdjust="spacing" textLength="8.5757" x="316.4346" y="239.4766">2</text><text fill="#000000" font-family="sans-serif" font-size="13" lengthAdjust="spacing" textLength="65.7173" x="329.0103" y="239.4766">Get routes</text></g><g><polygon fill="#181818" points="320.4346,269.5293,310.4346,273.5293,320.4346,277.5293,316.4346,273.5293" style="stroke:#181818;stroke-width:1;"/><line style="stroke:#181818;stroke-width:1;" x1="314.4346" x2="426.8833" y1="273.5293" y2="273.5293"/><text fill="#000000" font-family="sans-serif" font-size="13" font-weight="bold" lengthAdjust="spacing" textLength="8.5757" x="326.4346" y="268.7871">3</text><text fill="#000000" font-family="sans-serif" font-size="13" lengthAdjust="spacing" textLength="43.0054" x="339.0103" y="268.7871">Routes</text></g><g><polygon fill="#181818" points="65.4741,298.8398,55.4741,302.8398,65.4741,306.8398,61.4741,302.8398" style="stroke:#181818;stroke-width:1;"/><line style="stroke:#181818;stroke-width:1;" x1="59.4741" x2="308.4346" y1="302.8398" y2="302.8398"/><text fill="#000000" font-family="sans-serif" font-size="13" font-weight="bold" lengthAdjust="spacing" textLength="8.5757" x="71.4741" y="298.0977">4</text><text fill="#000000" font-family="sans-serif" font-size="13" lengthAdjust="spacing" textLength="142.3525" x="84.0498" y="298.0977">List of available routes</text></g><rect fill="#EEEEEE" height="3" style="stroke:#EEEEEE;stroke-width:1;" width="1108.5249" x="0" y="331.4951"/><line style="stroke:#000000;stroke-width:1;" x1="0" x2="1108.5249" y1="331.4951" y2="331.4951"/><line style="stroke:#000000;stroke-width:1;" x1="0" x2="1108.5249" y1="334.4951" y2="334.4951"/><rect fill="#EEEEEE" height="23.3105" style="stroke:#000000;stroke-width:2;" width="223.041" x="442.7419" y="320.8398"/><text fill="#000000" font-family="sans-serif" font-size="13" font-weight="bold" lengthAdjust="spacing" textLength="204.7563" x="448.7419" y="337.4082">Use case: Calendar Availability</text><g><polygon fill="#181818" points="297.4346,382.1162,307.4346,386.1162,297.4346,390.1162,301.4346,386.1162" style="stroke:#181818;stroke-width:1;"/><line style="stroke:#181818;stroke-width:1;" x1="54.4741" x2="303.4346" y1="386.1162" y2="386.1162"/><text fill="#000000" font-family="sans-serif" font-size="13" font-weight="bold" lengthAdjust="spacing" textLength="8.5757" x="61.4741" y="381.374">5</text><text fill="#000000" font-family="sans-serif" font-size="13" lengthAdjust="spacing" textLength="172.5483" x="74.0498" y="381.374">query: Calendar Availability</text></g><path d="M314,359.1504 L314,399.1504 L517,399.1504 L517,369.1504 L507,359.1504 L314,359.1504 " fill="#FEFFDD" style="stroke:#181818;stroke-width:0.5;"/><path d="M507,359.1504 L507,369.1504 L517,369.1504 L507,359.1504 " fill="#FEFFDD" style="stroke:#181818;stroke-width:0.5;"/><text fill="#000000" font-family="sans-serif" font-size="13" lengthAdjust="spacing" textLength="182.2729" x="320" y="376.7188">Low fare calendar availability</text><text fill="#000000" font-family="sans-serif" font-size="13" lengthAdjust="spacing" textLength="172.8213" x="320" y="392.0293">Lowest price per flight date</text><g><polygon fill="#181818" points="545.895,422.082,555.895,426.082,545.895,430.082,549.895,426.082" style="stroke:#181818;stroke-width:1;"/><line style="stroke:#181818;stroke-width:1;" x1="309.4346" x2="551.895" y1="426.082" y2="426.082"/><text fill="#000000" font-family="sans-serif" font-size="13" font-weight="bold" lengthAdjust="spacing" textLength="8.5757" x="316.4346" y="421.3398">6</text><text fill="#000000" font-family="sans-serif" font-size="13" lengthAdjust="spacing" textLength="161.04" x="329.0103" y="421.3398">Get calendar availabilities</text></g><g><polygon fill="#181818" points="320.4346,451.3926,310.4346,455.3926,320.4346,459.3926,316.4346,455.3926" style="stroke:#181818;stroke-width:1;"/><line style="stroke:#181818;stroke-width:1;" x1="314.4346" x2="556.895" y1="455.3926" y2="455.3926"/><text fill="#000000" font-family="sans-serif" font-size="13" font-weight="bold" lengthAdjust="spacing" textLength="8.5757" x="326.4346" y="450.6504">7</text><text fill="#000000" font-family="sans-serif" font-size="13" lengthAdjust="spacing" textLength="137.7632" x="339.0103" y="450.6504">Calendar availabilities</text></g><g><polygon fill="#181818" points="65.4741,480.7031,55.4741,484.7031,65.4741,488.7031,61.4741,484.7031" style="stroke:#181818;stroke-width:1;"/><line style="stroke:#181818;stroke-width:1;" x1="59.4741" x2="556.895" y1="484.7031" y2="484.7031"/><text fill="#000000" font-family="sans-serif" font-size="13" font-weight="bold" lengthAdjust="spacing" textLength="8.5757" x="71.4741" y="479.9609">8</text><text fill="#000000" font-family="sans-serif" font-size="13" lengthAdjust="spacing" textLength="178.5977" x="84.0498" y="479.9609">List of calendar availabilities</text></g><rect fill="#EEEEEE" height="3" style="stroke:#EEEEEE;stroke-width:1;" width="1108.5249" x="0" y="513.3584"/><line style="stroke:#000000;stroke-width:1;" x1="0" x2="1108.5249" y1="513.3584" y2="513.3584"/><line style="stroke:#000000;stroke-width:1;" x1="0" x2="1108.5249" y1="516.3584" y2="516.3584"/><rect fill="#EEEEEE" height="23.3105" style="stroke:#000000;stroke-width:2;" width="217.417" x="445.554" y="502.7031"/><text fill="#000000" font-family="sans-serif" font-size="13" font-weight="bold" lengthAdjust="spacing" textLength="199.1323" x="451.554" y="519.2715">Use case: Flight Offers Search</text><g><polygon fill="#181818" points="297.4346,563.9795,307.4346,567.9795,297.4346,571.9795,301.4346,567.9795" style="stroke:#181818;stroke-width:1;"/><line style="stroke:#181818;stroke-width:1;" x1="54.4741" x2="303.4346" y1="567.9795" y2="567.9795"/><text fill="#000000" font-family="sans-serif" font-size="13" font-weight="bold" lengthAdjust="spacing" textLength="8.5757" x="61.4741" y="563.2373">9</text><text fill="#000000" font-family="sans-serif" font-size="13" lengthAdjust="spacing" textLength="189.2109" x="74.0498" y="563.2373">mutation: Flight Offers Search</text></g><path d="M314,541.0137 L314,581.0137 L501,581.0137 L501,551.0137 L491,541.0137 L314,541.0137 " fill="#FEFFDD" style="stroke:#181818;stroke-width:0.5;"/><path d="M491,541.0137 L491,551.0137 L501,551.0137 L491,541.0137 " fill="#FEFFDD" style="stroke:#181818;stroke-width:0.5;"/><text fill="#000000" font-family="sans-serif" font-size="13" lengthAdjust="spacing" textLength="121.5767" x="320" y="558.582">Flight offers search</text><text fill="#000000" font-family="sans-serif" font-size="13" lengthAdjust="spacing" textLength="166.1753" x="320" y="573.8926">Lists available flight offers</text><g><polygon fill="#181818" points="718.3135,603.9453,728.3135,607.9453,718.3135,611.9453,722.3135,607.9453" style="stroke:#181818;stroke-width:1;"/><line style="stroke:#181818;stroke-width:1;" x1="309.4346" x2="724.3135" y1="607.9453" y2="607.9453"/><text fill="#000000" font-family="sans-serif" font-size="13" font-weight="bold" lengthAdjust="spacing" textLength="17.1514" x="316.4346" y="603.2031">10</text><text fill="#000000" font-family="sans-serif" font-size="13" lengthAdjust="spacing" textLength="99.7915" x="337.5859" y="603.2031">Get flight offers</text></g><path d="M621.2642,622.9453 L688.4492,622.9453 L688.4492,630.2559 L678.4492,640.2559 L621.2642,640.2559 L621.2642,622.9453 " fill="#EEEEEE" style="stroke:#000000;stroke-width:1.5;"/><rect fill="#FFFFFF" fill-opacity="0.00000" height="75.9316" style="stroke:#000000;stroke-width:1.5;" width="477.2607" x="621.2642" y="622.9453"/><text fill="#000000" font-family="sans-serif" font-size="13" font-weight="bold" lengthAdjust="spacing" textLength="22.1851" x="636.2642" y="636.5137">opt</text><text fill="#000000" font-family="sans-serif" font-size="11" font-weight="bold" lengthAdjust="spacing" textLength="121.5693" x="703.4492" y="635.5801">[If no offers in cache]</text><g><polygon fill="#181818" points="1058.1157,657.5664,1068.1157,661.5664,1058.1157,665.5664,1062.1157,661.5664" style="stroke:#181818;stroke-width:1;"/><line style="stroke:#181818;stroke-width:1;" x1="730.3135" x2="1064.1157" y1="661.5664" y2="661.5664"/><text fill="#000000" font-family="sans-serif" font-size="13" font-weight="bold" lengthAdjust="spacing" textLength="17.1514" x="737.3135" y="656.8242">11</text><text fill="#000000" font-family="sans-serif" font-size="13" lengthAdjust="spacing" textLength="128.7368" x="758.4648" y="656.8242">Request flight offers</text></g><g><polygon fill="#181818" points="741.3135,686.877,731.3135,690.877,741.3135,694.877,737.3135,690.877" style="stroke:#181818;stroke-width:1;"/><line style="stroke:#181818;stroke-width:1;" x1="735.3135" x2="1069.1157" y1="690.877" y2="690.877"/><text fill="#000000" font-family="sans-serif" font-size="13" font-weight="bold" lengthAdjust="spacing" textLength="17.1514" x="747.3135" y="686.1348">12</text><text fill="#000000" font-family="sans-serif" font-size="13" lengthAdjust="spacing" textLength="76.3687" x="768.4648" y="686.1348">Flight offers</text></g><g><polygon fill="#181818" points="320.4346,723.1875,310.4346,727.1875,320.4346,731.1875,316.4346,727.1875" style="stroke:#181818;stroke-width:1;"/><line style="stroke:#181818;stroke-width:1;" x1="314.4346" x2="729.3135" y1="727.1875" y2="727.1875"/><text fill="#000000" font-family="sans-serif" font-size="13" font-weight="bold" lengthAdjust="spacing" textLength="17.1514" x="326.4346" y="722.4453">13</text><text fill="#000000" font-family="sans-serif" font-size="13" lengthAdjust="spacing" textLength="76.3687" x="347.5859" y="722.4453">Flight offers</text></g><g><polygon fill="#181818" points="65.4741,752.498,55.4741,756.498,65.4741,760.498,61.4741,756.498" style="stroke:#181818;stroke-width:1;"/><line style="stroke:#181818;stroke-width:1;" x1="59.4741" x2="308.4346" y1="756.498" y2="756.498"/><text fill="#000000" font-family="sans-serif" font-size="13" font-weight="bold" lengthAdjust="spacing" textLength="17.1514" x="71.4741" y="751.7559">14</text><text fill="#000000" font-family="sans-serif" font-size="13" lengthAdjust="spacing" textLength="117.3491" x="92.6255" y="751.7559">List of flight offers</text></g><rect fill="#EEEEEE" height="3" style="stroke:#EEEEEE;stroke-width:1;" width="1108.5249" x="0" y="785.1533"/><line style="stroke:#000000;stroke-width:1;" x1="0" x2="1108.5249" y1="785.1533" y2="785.1533"/><line style="stroke:#000000;stroke-width:1;" x1="0" x2="1108.5249" y1="788.1533" y2="788.1533"/><rect fill="#EEEEEE" height="23.3105" style="stroke:#000000;stroke-width:2;" width="170.4888" x="469.0181" y="774.498"/><text fill="#000000" font-family="sans-serif" font-size="13" font-weight="bold" lengthAdjust="spacing" textLength="152.2041" x="475.0181" y="791.0664">Use case: Create Order</text><g><polygon fill="#181818" points="297.4346,835.7744,307.4346,839.7744,297.4346,843.7744,301.4346,839.7744" style="stroke:#181818;stroke-width:1;"/><line style="stroke:#181818;stroke-width:1;" x1="54.4741" x2="303.4346" y1="839.7744" y2="839.7744"/><text fill="#000000" font-family="sans-serif" font-size="13" font-weight="bold" lengthAdjust="spacing" textLength="17.1514" x="61.4741" y="835.0322">15</text><text fill="#000000" font-family="sans-serif" font-size="13" lengthAdjust="spacing" textLength="144.1489" x="82.6255" y="835.0322">mutation: Create order</text></g><path d="M314,812.8086 L314,852.8086 L526,852.8086 L526,822.8086 L516,812.8086 L314,812.8086 " fill="#FEFFDD" style="stroke:#181818;stroke-width:0.5;"/><path d="M516,812.8086 L516,822.8086 L526,822.8086 L516,812.8086 " fill="#FEFFDD" style="stroke:#181818;stroke-width:0.5;"/><text fill="#000000" font-family="sans-serif" font-size="13" lengthAdjust="spacing" textLength="191.3501" x="320" y="830.377">Create order for selected offer</text><text fill="#000000" font-family="sans-serif" font-size="13" lengthAdjust="spacing" textLength="114.1753" x="320" y="845.6875">Order information</text><g><polygon fill="#181818" points="928.5347,875.7402,938.5347,879.7402,928.5347,883.7402,932.5347,879.7402" style="stroke:#181818;stroke-width:1;"/><line style="stroke:#181818;stroke-width:1;" x1="309.4346" x2="934.5347" y1="879.7402" y2="879.7402"/><text fill="#000000" font-family="sans-serif" font-size="13" font-weight="bold" lengthAdjust="spacing" textLength="17.1514" x="316.4346" y="874.998">16</text><text fill="#000000" font-family="sans-serif" font-size="13" lengthAdjust="spacing" textLength="79.0029" x="337.5859" y="874.998">Create order</text></g><g><polygon fill="#181818" points="320.4346,905.0508,310.4346,909.0508,320.4346,913.0508,316.4346,909.0508" style="stroke:#181818;stroke-width:1;"/><line style="stroke:#181818;stroke-width:1;" x1="314.4346" x2="939.5347" y1="909.0508" y2="909.0508"/><text fill="#000000" font-family="sans-serif" font-size="13" font-weight="bold" lengthAdjust="spacing" textLength="17.1514" x="326.4346" y="904.3086">17</text><text fill="#000000" font-family="sans-serif" font-size="13" lengthAdjust="spacing" textLength="114.1753" x="347.5859" y="904.3086">Order information</text></g><g><polygon fill="#181818" points="65.4741,934.3613,55.4741,938.3613,65.4741,942.3613,61.4741,938.3613" style="stroke:#181818;stroke-width:1;"/><line style="stroke:#181818;stroke-width:1;" x1="59.4741" x2="308.4346" y1="938.3613" y2="938.3613"/><text fill="#000000" font-family="sans-serif" font-size="13" font-weight="bold" lengthAdjust="spacing" textLength="17.1514" x="71.4741" y="933.6191">18</text><text fill="#000000" font-family="sans-serif" font-size="13" lengthAdjust="spacing" textLength="114.1753" x="92.6255" y="933.6191">Order information</text></g><rect fill="#EEEEEE" height="3" style="stroke:#EEEEEE;stroke-width:1;" width="1108.5249" x="0" y="967.0166"/><line style="stroke:#000000;stroke-width:1;" x1="0" x2="1108.5249" y1="967.0166" y2="967.0166"/><line style="stroke:#000000;stroke-width:1;" x1="0" x2="1108.5249" y1="970.0166" y2="970.0166"/><rect fill="#EEEEEE" height="23.3105" style="stroke:#000000;stroke-width:2;" width="226.5449" x="440.99" y="956.3613"/><text fill="#000000" font-family="sans-serif" font-size="13" font-weight="bold" lengthAdjust="spacing" textLength="208.2603" x="446.99" y="972.9297">Use case: Service Offers Search</text><g><polygon fill="#181818" points="297.4346,1017.6377,307.4346,1021.6377,297.4346,1025.6377,301.4346,1021.6377" style="stroke:#181818;stroke-width:1;"/><line style="stroke:#181818;stroke-width:1;" x1="54.4741" x2="303.4346" y1="1021.6377" y2="1021.6377"/><text fill="#000000" font-family="sans-serif" font-size="13" font-weight="bold" lengthAdjust="spacing" textLength="17.1514" x="61.4741" y="1016.8955">19</text><text fill="#000000" font-family="sans-serif" font-size="13" lengthAdjust="spacing" textLength="197.6406" x="82.6255" y="1016.8955">mutation: Service Offers Search</text></g><path d="M314,994.6719 L314,1034.6719 L555,1034.6719 L555,1004.6719 L545,994.6719 L314,994.6719 " fill="#FEFFDD" style="stroke:#181818;stroke-width:0.5;"/><path d="M545,994.6719 L545,1004.6719 L555,1004.6719 L545,994.6719 " fill="#FEFFDD" style="stroke:#181818;stroke-width:0.5;"/><text fill="#000000" font-family="sans-serif" font-size="13" lengthAdjust="spacing" textLength="220.7588" x="320" y="1012.2402">Search service offers by flight offer</text><text fill="#000000" font-family="sans-serif" font-size="13" lengthAdjust="spacing" textLength="176.4204" x="320" y="1027.5508">Lists available service offers</text><g><polygon fill="#181818" points="718.3135,1057.6035,728.3135,1061.6035,718.3135,1065.6035,722.3135,1061.6035" style="stroke:#181818;stroke-width:1;"/><line style="stroke:#181818;stroke-width:1;" x1="309.4346" x2="724.3135" y1="1061.6035" y2="1061.6035"/><text fill="#000000" font-family="sans-serif" font-size="13" font-weight="bold" lengthAdjust="spacing" textLength="17.1514" x="316.4346" y="1056.8613">20</text><text fill="#000000" font-family="sans-serif" font-size="13" lengthAdjust="spacing" textLength="110.0366" x="337.5859" y="1056.8613">Get service offers</text></g><path d="M621.2642,1076.6035 L688.4492,1076.6035 L688.4492,1083.9141 L678.4492,1093.9141 L621.2642,1093.9141 L621.2642,1076.6035 " fill="#EEEEEE" style="stroke:#000000;stroke-width:1.5;"/><rect fill="#FFFFFF" fill-opacity="0.00000" height="75.9316" style="stroke:#000000;stroke-width:1.5;" width="477.2607" x="621.2642" y="1076.6035"/><text fill="#000000" font-family="sans-serif" font-size="13" font-weight="bold" lengthAdjust="spacing" textLength="22.1851" x="636.2642" y="1090.1719">opt</text><text fill="#000000" font-family="sans-serif" font-size="11" font-weight="bold" lengthAdjust="spacing" textLength="121.5693" x="703.4492" y="1089.2383">[If no offers in cache]</text><g><polygon fill="#181818" points="1058.1157,1111.2246,1068.1157,1115.2246,1058.1157,1119.2246,1062.1157,1115.2246" style="stroke:#181818;stroke-width:1;"/><line style="stroke:#181818;stroke-width:1;" x1="730.3135" x2="1064.1157" y1="1115.2246" y2="1115.2246"/><text fill="#000000" font-family="sans-serif" font-size="13" font-weight="bold" lengthAdjust="spacing" textLength="17.1514" x="737.3135" y="1110.4824">21</text><text fill="#000000" font-family="sans-serif" font-size="13" lengthAdjust="spacing" textLength="138.9819" x="758.4648" y="1110.4824">Request service offers</text></g><g><polygon fill="#181818" points="741.3135,1140.5352,731.3135,1144.5352,741.3135,1148.5352,737.3135,1144.5352" style="stroke:#181818;stroke-width:1;"/><line style="stroke:#181818;stroke-width:1;" x1="735.3135" x2="1069.1157" y1="1144.5352" y2="1144.5352"/><text fill="#000000" font-family="sans-serif" font-size="13" font-weight="bold" lengthAdjust="spacing" textLength="17.1514" x="747.3135" y="1139.793">22</text><text fill="#000000" font-family="sans-serif" font-size="13" lengthAdjust="spacing" textLength="84.7983" x="768.4648" y="1139.793">Service offers</text></g><g><polygon fill="#181818" points="320.4346,1176.8457,310.4346,1180.8457,320.4346,1184.8457,316.4346,1180.8457" style="stroke:#181818;stroke-width:1;"/><line style="stroke:#181818;stroke-width:1;" x1="314.4346" x2="729.3135" y1="1180.8457" y2="1180.8457"/><text fill="#000000" font-family="sans-serif" font-size="13" font-weight="bold" lengthAdjust="spacing" textLength="17.1514" x="326.4346" y="1176.1035">23</text><text fill="#000000" font-family="sans-serif" font-size="13" lengthAdjust="spacing" textLength="84.7983" x="347.5859" y="1176.1035">Service offers</text></g><g><polygon fill="#181818" points="65.4741,1206.1563,55.4741,1210.1563,65.4741,1214.1563,61.4741,1210.1563" style="stroke:#181818;stroke-width:1;"/><line style="stroke:#181818;stroke-width:1;" x1="59.4741" x2="308.4346" y1="1210.1563" y2="1210.1563"/><text fill="#000000" font-family="sans-serif" font-size="13" font-weight="bold" lengthAdjust="spacing" textLength="17.1514" x="71.4741" y="1205.4141">24</text><text fill="#000000" font-family="sans-serif" font-size="13" lengthAdjust="spacing" textLength="127.5942" x="92.6255" y="1205.4141">List of service offers</text></g><rect fill="#EEEEEE" height="3" style="stroke:#EEEEEE;stroke-width:1;" width="1108.5249" x="0" y="1238.8115"/><line style="stroke:#000000;stroke-width:1;" x1="0" x2="1108.5249" y1="1238.8115" y2="1238.8115"/><line style="stroke:#000000;stroke-width:1;" x1="0" x2="1108.5249" y1="1241.8115" y2="1241.8115"/><rect fill="#EEEEEE" height="23.3105" style="stroke:#000000;stroke-width:2;" width="239.8813" x="434.3218" y="1228.1563"/><text fill="#000000" font-family="sans-serif" font-size="13" font-weight="bold" lengthAdjust="spacing" textLength="221.5967" x="440.3218" y="1244.7246">Use case: Seat Availability Search</text><g><polygon fill="#181818" points="297.4346,1289.4326,307.4346,1293.4326,297.4346,1297.4326,301.4346,1293.4326" style="stroke:#181818;stroke-width:1;"/><line style="stroke:#181818;stroke-width:1;" x1="54.4741" x2="303.4346" y1="1293.4326" y2="1293.4326"/><text fill="#000000" font-family="sans-serif" font-size="13" font-weight="bold" lengthAdjust="spacing" textLength="17.1514" x="61.4741" y="1288.6904">25</text><text fill="#000000" font-family="sans-serif" font-size="13" lengthAdjust="spacing" textLength="209.8091" x="82.6255" y="1288.6904">mutation: Seat Availability Search</text></g><path d="M314,1266.4668 L314,1306.4668 L601,1306.4668 L601,1276.4668 L591,1266.4668 L314,1266.4668 " fill="#FEFFDD" style="stroke:#181818;stroke-width:0.5;"/><path d="M591,1266.4668 L591,1276.4668 L601,1276.4668 L591,1266.4668 " fill="#FEFFDD" style="stroke:#181818;stroke-width:0.5;"/><text fill="#000000" font-family="sans-serif" font-size="13" lengthAdjust="spacing" textLength="266.0684" x="320" y="1284.0352">Search seat-map structure and seat offers</text><text fill="#000000" font-family="sans-serif" font-size="13" lengthAdjust="spacing" textLength="159.7197" x="320" y="1299.3457">Seat-map and seat offers</text><g><polygon fill="#181818" points="718.3135,1329.3984,728.3135,1333.3984,718.3135,1337.3984,722.3135,1333.3984" style="stroke:#181818;stroke-width:1;"/><line style="stroke:#181818;stroke-width:1;" x1="309.4346" x2="724.3135" y1="1333.3984" y2="1333.3984"/><text fill="#000000" font-family="sans-serif" font-size="13" font-weight="bold" lengthAdjust="spacing" textLength="17.1514" x="316.4346" y="1328.6563">26</text><text fill="#000000" font-family="sans-serif" font-size="13" lengthAdjust="spacing" textLength="92.3711" x="337.5859" y="1328.6563">Get seat offers</text></g><path d="M621.2642,1348.3984 L688.4492,1348.3984 L688.4492,1355.709 L678.4492,1365.709 L621.2642,1365.709 L621.2642,1348.3984 " fill="#EEEEEE" style="stroke:#000000;stroke-width:1.5;"/><rect fill="#FFFFFF" fill-opacity="0.00000" height="75.9316" style="stroke:#000000;stroke-width:1.5;" width="477.2607" x="621.2642" y="1348.3984"/><text fill="#000000" font-family="sans-serif" font-size="13" font-weight="bold" lengthAdjust="spacing" textLength="22.1851" x="636.2642" y="1361.9668">opt</text><text fill="#000000" font-family="sans-serif" font-size="11" font-weight="bold" lengthAdjust="spacing" textLength="121.5693" x="703.4492" y="1361.0332">[If no offers in cache]</text><g><polygon fill="#181818" points="1058.1157,1383.0195,1068.1157,1387.0195,1058.1157,1391.0195,1062.1157,1387.0195" style="stroke:#181818;stroke-width:1;"/><line style="stroke:#181818;stroke-width:1;" x1="730.3135" x2="1064.1157" y1="1387.0195" y2="1387.0195"/><text fill="#000000" font-family="sans-serif" font-size="13" font-weight="bold" lengthAdjust="spacing" textLength="17.1514" x="737.3135" y="1382.2773">27</text><text fill="#000000" font-family="sans-serif" font-size="13" lengthAdjust="spacing" textLength="121.3164" x="758.4648" y="1382.2773">Request seat offers</text></g><g><polygon fill="#181818" points="741.3135,1412.3301,731.3135,1416.3301,741.3135,1420.3301,737.3135,1416.3301" style="stroke:#181818;stroke-width:1;"/><line style="stroke:#181818;stroke-width:1;" x1="735.3135" x2="1069.1157" y1="1416.3301" y2="1416.3301"/><text fill="#000000" font-family="sans-serif" font-size="13" font-weight="bold" lengthAdjust="spacing" textLength="17.1514" x="747.3135" y="1411.5879">28</text><text fill="#000000" font-family="sans-serif" font-size="13" lengthAdjust="spacing" textLength="67.1328" x="768.4648" y="1411.5879">Seat offers</text></g><g><polygon fill="#181818" points="320.4346,1448.6406,310.4346,1452.6406,320.4346,1456.6406,316.4346,1452.6406" style="stroke:#181818;stroke-width:1;"/><line style="stroke:#181818;stroke-width:1;" x1="314.4346" x2="729.3135" y1="1452.6406" y2="1452.6406"/><text fill="#000000" font-family="sans-serif" font-size="13" font-weight="bold" lengthAdjust="spacing" textLength="17.1514" x="326.4346" y="1447.8984">29</text><text fill="#000000" font-family="sans-serif" font-size="13" lengthAdjust="spacing" textLength="67.1328" x="347.5859" y="1447.8984">Seat offers</text></g><g><polygon fill="#181818" points="65.4741,1477.9512,55.4741,1481.9512,65.4741,1485.9512,61.4741,1481.9512" style="stroke:#181818;stroke-width:1;"/><line style="stroke:#181818;stroke-width:1;" x1="59.4741" x2="308.4346" y1="1481.9512" y2="1481.9512"/><text fill="#000000" font-family="sans-serif" font-size="13" font-weight="bold" lengthAdjust="spacing" textLength="17.1514" x="71.4741" y="1477.209">30</text><text fill="#000000" font-family="sans-serif" font-size="13" lengthAdjust="spacing" textLength="109.9287" x="92.6255" y="1477.209">List of seat offers</text></g><rect fill="#EEEEEE" height="3" style="stroke:#EEEEEE;stroke-width:1;" width="1108.5249" x="0" y="1510.6064"/><line style="stroke:#000000;stroke-width:1;" x1="0" x2="1108.5249" y1="1510.6064" y2="1510.6064"/><line style="stroke:#000000;stroke-width:1;" x1="0" x2="1108.5249" y1="1513.6064" y2="1513.6064"/><rect fill="#EEEEEE" height="23.3105" style="stroke:#000000;stroke-width:2;" width="253.5732" x="427.4758" y="1499.9512"/><text fill="#000000" font-family="sans-serif" font-size="13" font-weight="bold" lengthAdjust="spacing" textLength="235.2886" x="433.4758" y="1516.5195">Use case: Reserve and Release Seat</text><g><polygon fill="#181818" points="297.4346,1561.2275,307.4346,1565.2275,297.4346,1569.2275,301.4346,1565.2275" style="stroke:#181818;stroke-width:1;"/><line style="stroke:#181818;stroke-width:1;" x1="54.4741" x2="303.4346" y1="1565.2275" y2="1565.2275"/><text fill="#000000" font-family="sans-serif" font-size="13" font-weight="bold" lengthAdjust="spacing" textLength="17.1514" x="61.4741" y="1560.4854">31</text><text fill="#000000" font-family="sans-serif" font-size="13" lengthAdjust="spacing" textLength="195.2222" x="82.6255" y="1560.4854">mutation: Reserve/release seat</text></g><path d="M314,1538.2617 L314,1578.2617 L465,1578.2617 L465,1548.2617 L455,1538.2617 L314,1538.2617 " fill="#FEFFDD" style="stroke:#181818;stroke-width:0.5;"/><path d="M455,1538.2617 L455,1548.2617 L465,1548.2617 L455,1538.2617 " fill="#FEFFDD" style="stroke:#181818;stroke-width:0.5;"/><text fill="#000000" font-family="sans-serif" font-size="13" lengthAdjust="spacing" textLength="130.0762" x="320" y="1555.8301">Reserve/release seat</text><text fill="#000000" font-family="sans-serif" font-size="13" lengthAdjust="spacing" textLength="97.3032" x="320" y="1571.1406">Order structure</text><g><polygon fill="#181818" points="718.3135,1601.1934,728.3135,1605.1934,718.3135,1609.1934,722.3135,1605.1934" style="stroke:#181818;stroke-width:1;"/><line style="stroke:#181818;stroke-width:1;" x1="309.4346" x2="724.3135" y1="1605.1934" y2="1605.1934"/><text fill="#000000" font-family="sans-serif" font-size="13" font-weight="bold" lengthAdjust="spacing" textLength="17.1514" x="316.4346" y="1600.4512">32</text><text fill="#000000" font-family="sans-serif" font-size="13" lengthAdjust="spacing" textLength="130.0762" x="337.5859" y="1600.4512">Reserve/release seat</text></g><g><polygon fill="#181818" points="320.4346,1630.5039,310.4346,1634.5039,320.4346,1638.5039,316.4346,1634.5039" style="stroke:#181818;stroke-width:1;"/><line style="stroke:#181818;stroke-width:1;" x1="314.4346" x2="729.3135" y1="1634.5039" y2="1634.5039"/><text fill="#000000" font-family="sans-serif" font-size="13" font-weight="bold" lengthAdjust="spacing" textLength="17.1514" x="326.4346" y="1629.7617">33</text><text fill="#000000" font-family="sans-serif" font-size="13" lengthAdjust="spacing" textLength="97.3032" x="347.5859" y="1629.7617">Order structure</text></g><g><polygon fill="#181818" points="65.4741,1659.8145,55.4741,1663.8145,65.4741,1667.8145,61.4741,1663.8145" style="stroke:#181818;stroke-width:1;"/><line style="stroke:#181818;stroke-width:1;" x1="59.4741" x2="308.4346" y1="1663.8145" y2="1663.8145"/><text fill="#000000" font-family="sans-serif" font-size="13" font-weight="bold" lengthAdjust="spacing" textLength="17.1514" x="71.4741" y="1659.0723">34</text><text fill="#000000" font-family="sans-serif" font-size="13" lengthAdjust="spacing" textLength="97.3032" x="92.6255" y="1659.0723">Order structure</text></g><!--SRC=[fLN1Rjim3BthAuZs7EnO84023DrQ32ZG8SRE0-FGYJ37yYGwRVv-j6KxbcodsPPJ8l8zakzH2gPiBDnzBNQGLexDaUmTeEj_ABKrx_3y-W3tkTuVU9jNf40-9LhMgIwnOBZRcuV57fdUyDoWs-_ZH4TeqyF2aJtfb9fSV_IpFHf3KiofsA4DGDtXFCna6Td54GlSqv4A3k1Dy0hMxgvWws2FbIv05F8oVKyIk2zryKj5X19eiALp5mHMR8hgkAr5PiqvmMlT5ZoQWkcT8SlDcrAh5Vnm90CxMiAJ5l3d4-eSjvA_CHMJWzLATNOjrgtqI_XTaJtFG5HXcC3MXghaODw03_BJivcIjIcS-aBr29Kbm9h1Mdt2753RqbZsOzGigYsuM8T6Bf-9MqeLHYuzjitq3DqKItZHZiKbmBxnbYhKux5TWsv0dMi-NzTZ4ZBKuqNaoD1IlsDT4pvJmYIzbLOcWLBioffx0JkfCo5AlAYDB5FCMeQBao_TFzwC66iuLorQBJz6iu8EaiQn6IMF5MEz8zEWePPjtFYuNmDLz-K6pcR3f0a9WylQw1SYP67XMoQWheukPARqG2f0BjPo-vORaZrmCOL4uZfFSLSnMoT7c7XbbyEIqI9R4Y2yrc_BXwgtoSr3D5HxU0wPFEkESagPThwcykowaD2nePeIU_YwBODAGUZIs9XrGeDnKZX_ubd_SlqcKS7RvddQdhlzs9u3BqOB6QRVj94Hv9zMCkAOsCbarDZSKaQPLxOogXhRWXo-hJSxCmsSD0TP_cjBS6ohjF_3gO-xff8k9GxSPWtoV_g2VDKKv9iSGRx93fnv8ZPKStfnDdAnvT3B_94NBV2JRK5rYQ4Fat5_ONjBFbHwacH6YfXxzhsufFm1]--></g></svg>